{
	"patcher" : 	{
		"fileversion" : 1,
		"rect" : [ 35.0, 44.0, 1440.0, 826.0 ],
		"bglocked" : 0,
		"defrect" : [ 35.0, 44.0, 1440.0, 826.0 ],
		"openrect" : [ 0.0, 0.0, 0.0, 0.0 ],
		"openinpresentation" : 0,
		"default_fontsize" : 12.0,
		"default_fontface" : 0,
		"default_fontname" : "Arial",
		"gridonopen" : 0,
		"gridsize" : [ 5.0, 5.0 ],
		"gridsnaponopen" : 0,
		"toolbarvisible" : 1,
		"boxanimatetime" : 200,
		"imprint" : 0,
		"metadata" : [  ],
		"boxes" : [ 			{
				"box" : 				{
					"maxclass" : "comment",
					"text" : "sensor graph 2",
					"fontsize" : 12.0,
					"presentation_rect" : [ 696.0, 541.0, 0.0, 0.0 ],
					"numinlets" : 1,
					"fontname" : "Arial",
					"numoutlets" : 0,
					"patching_rect" : [ 696.0, 541.0, 91.0, 20.0 ],
					"id" : "obj-122"
				}

			}
, 			{
				"box" : 				{
					"maxclass" : "newobj",
					"text" : "r sensorReadings",
					"outlettype" : [ "" ],
					"fontsize" : 12.0,
					"presentation_rect" : [ 691.0, 571.0, 0.0, 0.0 ],
					"numinlets" : 0,
					"fontname" : "Arial",
					"numoutlets" : 1,
					"patching_rect" : [ 691.0, 571.0, 105.0, 20.0 ],
					"id" : "obj-123"
				}

			}
, 			{
				"box" : 				{
					"maxclass" : "newobj",
					"text" : "loadbang",
					"outlettype" : [ "bang" ],
					"fontsize" : 12.0,
					"presentation_rect" : [ 801.0, 571.0, 0.0, 0.0 ],
					"numinlets" : 1,
					"fontname" : "Arial",
					"numoutlets" : 1,
					"patching_rect" : [ 801.0, 571.0, 60.0, 20.0 ],
					"id" : "obj-124"
				}

			}
, 			{
				"box" : 				{
					"maxclass" : "comment",
					"text" : "IR",
					"fontsize" : 12.0,
					"presentation_rect" : [ 721.0, 596.0, 0.0, 0.0 ],
					"numinlets" : 1,
					"fontname" : "Arial",
					"numoutlets" : 0,
					"patching_rect" : [ 721.0, 596.0, 22.0, 20.0 ],
					"id" : "obj-125"
				}

			}
, 			{
				"box" : 				{
					"maxclass" : "message",
					"text" : "2",
					"outlettype" : [ "" ],
					"fontsize" : 12.0,
					"presentation_rect" : [ 801.0, 596.0, 0.0, 0.0 ],
					"numinlets" : 2,
					"fontname" : "Arial",
					"numoutlets" : 1,
					"patching_rect" : [ 801.0, 596.0, 32.5, 18.0 ],
					"id" : "obj-126"
				}

			}
, 			{
				"box" : 				{
					"maxclass" : "number",
					"outlettype" : [ "int", "bang" ],
					"fontsize" : 12.0,
					"presentation_rect" : [ 746.0, 596.0, 0.0, 0.0 ],
					"numinlets" : 1,
					"fontname" : "Arial",
					"numoutlets" : 2,
					"patching_rect" : [ 746.0, 596.0, 50.0, 20.0 ],
					"id" : "obj-127"
				}

			}
, 			{
				"box" : 				{
					"maxclass" : "multislider",
					"outlettype" : [ "", "" ],
					"setminmax" : [ 0.0, 470.0 ],
					"size" : 5,
					"setstyle" : 1,
					"presentation_rect" : [ 691.0, 651.0, 0.0, 0.0 ],
					"numinlets" : 1,
					"numoutlets" : 2,
					"patching_rect" : [ 691.0, 651.0, 158.0, 141.0 ],
					"id" : "obj-128"
				}

			}
, 			{
				"box" : 				{
					"maxclass" : "newobj",
					"text" : "p",
					"outlettype" : [ "" ],
					"fontsize" : 12.0,
					"presentation_rect" : [ 691.0, 621.0, 0.0, 0.0 ],
					"numinlets" : 2,
					"fontname" : "Arial",
					"numoutlets" : 1,
					"patching_rect" : [ 691.0, 621.0, 100.0, 20.0 ],
					"id" : "obj-129",
					"patcher" : 					{
						"fileversion" : 1,
						"rect" : [ 50.0, 94.0, 640.0, 480.0 ],
						"bglocked" : 0,
						"defrect" : [ 50.0, 94.0, 640.0, 480.0 ],
						"openrect" : [ 0.0, 0.0, 0.0, 0.0 ],
						"openinpresentation" : 0,
						"default_fontsize" : 12.0,
						"default_fontface" : 0,
						"default_fontname" : "Arial",
						"gridonopen" : 0,
						"gridsize" : [ 5.0, 5.0 ],
						"gridsnaponopen" : 0,
						"toolbarvisible" : 1,
						"boxanimatetime" : 200,
						"imprint" : 0,
						"metadata" : [  ],
						"boxes" : [ 							{
								"box" : 								{
									"maxclass" : "newobj",
									"text" : "t l",
									"outlettype" : [ "" ],
									"fontsize" : 12.0,
									"numinlets" : 1,
									"fontname" : "Arial",
									"numoutlets" : 1,
									"patching_rect" : [ 294.0, 156.0, 20.0, 20.0 ],
									"id" : "obj-65"
								}

							}
, 							{
								"box" : 								{
									"maxclass" : "newobj",
									"text" : "t l",
									"outlettype" : [ "" ],
									"fontsize" : 12.0,
									"numinlets" : 1,
									"fontname" : "Arial",
									"numoutlets" : 1,
									"patching_rect" : [ 232.0, 156.0, 20.0, 20.0 ],
									"id" : "obj-64"
								}

							}
, 							{
								"box" : 								{
									"maxclass" : "newobj",
									"text" : "t l",
									"outlettype" : [ "" ],
									"fontsize" : 12.0,
									"numinlets" : 1,
									"fontname" : "Arial",
									"numoutlets" : 1,
									"patching_rect" : [ 196.0, 158.0, 20.0, 20.0 ],
									"id" : "obj-63"
								}

							}
, 							{
								"box" : 								{
									"maxclass" : "newobj",
									"text" : "t l",
									"outlettype" : [ "" ],
									"fontsize" : 12.0,
									"numinlets" : 1,
									"fontname" : "Arial",
									"numoutlets" : 1,
									"patching_rect" : [ 145.0, 157.0, 20.0, 20.0 ],
									"id" : "obj-62"
								}

							}
, 							{
								"box" : 								{
									"maxclass" : "newobj",
									"text" : "t i",
									"outlettype" : [ "int" ],
									"fontsize" : 12.0,
									"numinlets" : 1,
									"fontname" : "Arial",
									"numoutlets" : 1,
									"patching_rect" : [ 339.0, 158.0, 20.0, 20.0 ],
									"id" : "obj-60"
								}

							}
, 							{
								"box" : 								{
									"maxclass" : "newobj",
									"text" : "t l",
									"outlettype" : [ "" ],
									"fontsize" : 12.0,
									"numinlets" : 1,
									"fontname" : "Arial",
									"numoutlets" : 1,
									"patching_rect" : [ 101.0, 157.0, 20.0, 20.0 ],
									"id" : "obj-59"
								}

							}
, 							{
								"box" : 								{
									"maxclass" : "newobj",
									"text" : "zl nth 1",
									"outlettype" : [ "", "" ],
									"fontsize" : 12.0,
									"numinlets" : 2,
									"fontname" : "Arial",
									"numoutlets" : 2,
									"patching_rect" : [ 304.0, 193.0, 49.0, 20.0 ],
									"id" : "obj-58"
								}

							}
, 							{
								"box" : 								{
									"maxclass" : "newobj",
									"text" : "zl nth 1",
									"outlettype" : [ "", "" ],
									"fontsize" : 12.0,
									"numinlets" : 2,
									"fontname" : "Arial",
									"numoutlets" : 2,
									"patching_rect" : [ 252.0, 193.0, 49.0, 20.0 ],
									"id" : "obj-57"
								}

							}
, 							{
								"box" : 								{
									"maxclass" : "newobj",
									"text" : "zl nth 1",
									"outlettype" : [ "", "" ],
									"fontsize" : 12.0,
									"numinlets" : 2,
									"fontname" : "Arial",
									"numoutlets" : 2,
									"patching_rect" : [ 195.0, 192.0, 49.0, 20.0 ],
									"id" : "obj-56"
								}

							}
, 							{
								"box" : 								{
									"maxclass" : "newobj",
									"text" : "zl nth 1",
									"outlettype" : [ "", "" ],
									"fontsize" : 12.0,
									"numinlets" : 2,
									"fontname" : "Arial",
									"numoutlets" : 2,
									"patching_rect" : [ 140.0, 192.0, 49.0, 20.0 ],
									"id" : "obj-55"
								}

							}
, 							{
								"box" : 								{
									"maxclass" : "newobj",
									"text" : "zl nth 1",
									"outlettype" : [ "", "" ],
									"fontsize" : 12.0,
									"numinlets" : 2,
									"fontname" : "Arial",
									"numoutlets" : 2,
									"patching_rect" : [ 89.0, 192.0, 49.0, 20.0 ],
									"id" : "obj-50"
								}

							}
, 							{
								"box" : 								{
									"maxclass" : "newobj",
									"text" : "pak 0 0 0 0 0",
									"outlettype" : [ "" ],
									"fontsize" : 12.0,
									"numinlets" : 5,
									"fontname" : "Arial",
									"numoutlets" : 1,
									"patching_rect" : [ 120.0, 223.0, 80.0, 20.0 ],
									"id" : "obj-44"
								}

							}
, 							{
								"box" : 								{
									"maxclass" : "newobj",
									"text" : "route 1 2 3 4 5",
									"outlettype" : [ "", "", "", "", "", "" ],
									"fontsize" : 12.0,
									"numinlets" : 1,
									"fontname" : "Arial",
									"numoutlets" : 6,
									"patching_rect" : [ 50.0, 100.0, 88.0, 20.0 ],
									"id" : "obj-12"
								}

							}
, 							{
								"box" : 								{
									"maxclass" : "inlet",
									"outlettype" : [ "" ],
									"numinlets" : 0,
									"numoutlets" : 1,
									"patching_rect" : [ 55.0, 40.0, 25.0, 25.0 ],
									"id" : "obj-66",
									"comment" : ""
								}

							}
, 							{
								"box" : 								{
									"maxclass" : "inlet",
									"outlettype" : [ "int" ],
									"numinlets" : 0,
									"numoutlets" : 1,
									"patching_rect" : [ 344.0, 40.0, 25.0, 25.0 ],
									"id" : "obj-67",
									"comment" : ""
								}

							}
, 							{
								"box" : 								{
									"maxclass" : "outlet",
									"numinlets" : 1,
									"numoutlets" : 0,
									"patching_rect" : [ 125.0, 303.0, 25.0, 25.0 ],
									"id" : "obj-68",
									"comment" : ""
								}

							}
 ],
						"lines" : [ 							{
								"patchline" : 								{
									"source" : [ "obj-12", 0 ],
									"destination" : [ "obj-59", 0 ],
									"hidden" : 0,
									"midpoints" : [  ]
								}

							}
, 							{
								"patchline" : 								{
									"source" : [ "obj-12", 1 ],
									"destination" : [ "obj-62", 0 ],
									"hidden" : 0,
									"midpoints" : [  ]
								}

							}
, 							{
								"patchline" : 								{
									"source" : [ "obj-12", 2 ],
									"destination" : [ "obj-63", 0 ],
									"hidden" : 0,
									"midpoints" : [  ]
								}

							}
, 							{
								"patchline" : 								{
									"source" : [ "obj-12", 3 ],
									"destination" : [ "obj-64", 0 ],
									"hidden" : 0,
									"midpoints" : [  ]
								}

							}
, 							{
								"patchline" : 								{
									"source" : [ "obj-12", 4 ],
									"destination" : [ "obj-65", 0 ],
									"hidden" : 0,
									"midpoints" : [  ]
								}

							}
, 							{
								"patchline" : 								{
									"source" : [ "obj-66", 0 ],
									"destination" : [ "obj-12", 0 ],
									"hidden" : 0,
									"midpoints" : [  ]
								}

							}
, 							{
								"patchline" : 								{
									"source" : [ "obj-44", 0 ],
									"destination" : [ "obj-68", 0 ],
									"hidden" : 0,
									"midpoints" : [  ]
								}

							}
, 							{
								"patchline" : 								{
									"source" : [ "obj-67", 0 ],
									"destination" : [ "obj-60", 0 ],
									"hidden" : 0,
									"midpoints" : [  ]
								}

							}
, 							{
								"patchline" : 								{
									"source" : [ "obj-65", 0 ],
									"destination" : [ "obj-58", 0 ],
									"hidden" : 0,
									"midpoints" : [  ]
								}

							}
, 							{
								"patchline" : 								{
									"source" : [ "obj-64", 0 ],
									"destination" : [ "obj-57", 0 ],
									"hidden" : 0,
									"midpoints" : [  ]
								}

							}
, 							{
								"patchline" : 								{
									"source" : [ "obj-63", 0 ],
									"destination" : [ "obj-56", 0 ],
									"hidden" : 0,
									"midpoints" : [  ]
								}

							}
, 							{
								"patchline" : 								{
									"source" : [ "obj-62", 0 ],
									"destination" : [ "obj-55", 0 ],
									"hidden" : 0,
									"midpoints" : [  ]
								}

							}
, 							{
								"patchline" : 								{
									"source" : [ "obj-60", 0 ],
									"destination" : [ "obj-50", 1 ],
									"hidden" : 0,
									"midpoints" : [  ]
								}

							}
, 							{
								"patchline" : 								{
									"source" : [ "obj-60", 0 ],
									"destination" : [ "obj-55", 1 ],
									"hidden" : 0,
									"midpoints" : [  ]
								}

							}
, 							{
								"patchline" : 								{
									"source" : [ "obj-60", 0 ],
									"destination" : [ "obj-56", 1 ],
									"hidden" : 0,
									"midpoints" : [  ]
								}

							}
, 							{
								"patchline" : 								{
									"source" : [ "obj-60", 0 ],
									"destination" : [ "obj-58", 1 ],
									"hidden" : 0,
									"midpoints" : [  ]
								}

							}
, 							{
								"patchline" : 								{
									"source" : [ "obj-60", 0 ],
									"destination" : [ "obj-57", 1 ],
									"hidden" : 0,
									"midpoints" : [  ]
								}

							}
, 							{
								"patchline" : 								{
									"source" : [ "obj-58", 0 ],
									"destination" : [ "obj-44", 4 ],
									"hidden" : 0,
									"midpoints" : [  ]
								}

							}
, 							{
								"patchline" : 								{
									"source" : [ "obj-57", 0 ],
									"destination" : [ "obj-44", 3 ],
									"hidden" : 0,
									"midpoints" : [  ]
								}

							}
, 							{
								"patchline" : 								{
									"source" : [ "obj-56", 0 ],
									"destination" : [ "obj-44", 2 ],
									"hidden" : 0,
									"midpoints" : [  ]
								}

							}
, 							{
								"patchline" : 								{
									"source" : [ "obj-55", 0 ],
									"destination" : [ "obj-44", 1 ],
									"hidden" : 0,
									"midpoints" : [  ]
								}

							}
, 							{
								"patchline" : 								{
									"source" : [ "obj-50", 0 ],
									"destination" : [ "obj-44", 0 ],
									"hidden" : 0,
									"midpoints" : [  ]
								}

							}
, 							{
								"patchline" : 								{
									"source" : [ "obj-59", 0 ],
									"destination" : [ "obj-50", 0 ],
									"hidden" : 0,
									"midpoints" : [  ]
								}

							}
 ]
					}
,
					"saved_object_attributes" : 					{
						"fontface" : 0,
						"fontsize" : 12.0,
						"globalpatchername" : "",
						"default_fontface" : 0,
						"default_fontname" : "Arial",
						"fontname" : "Arial",
						"default_fontsize" : 12.0
					}

				}

			}
, 			{
				"box" : 				{
					"maxclass" : "number",
					"outlettype" : [ "int", "bang" ],
					"fontsize" : 12.0,
					"presentation_rect" : [ 1020.0, 800.0, 0.0, 0.0 ],
					"numinlets" : 1,
					"fontname" : "Arial",
					"numoutlets" : 2,
					"patching_rect" : [ 1020.0, 800.0, 50.0, 20.0 ],
					"id" : "obj-121"
				}

			}
, 			{
				"box" : 				{
					"maxclass" : "newobj",
					"text" : "t i i b",
					"outlettype" : [ "int", "int", "bang" ],
					"fontsize" : 12.0,
					"numinlets" : 1,
					"fontname" : "Arial",
					"numoutlets" : 3,
					"patching_rect" : [ 1103.0, 736.0, 46.0, 20.0 ],
					"id" : "obj-120"
				}

			}
, 			{
				"box" : 				{
					"maxclass" : "newobj",
					"text" : "v a",
					"outlettype" : [ "" ],
					"fontsize" : 12.0,
					"numinlets" : 1,
					"fontname" : "Arial",
					"numoutlets" : 1,
					"patching_rect" : [ 1122.0, 765.0, 27.0, 20.0 ],
					"id" : "obj-119"
				}

			}
, 			{
				"box" : 				{
					"maxclass" : "newobj",
					"text" : "- 0",
					"outlettype" : [ "int" ],
					"fontsize" : 12.0,
					"numinlets" : 2,
					"fontname" : "Arial",
					"numoutlets" : 1,
					"patching_rect" : [ 1095.0, 795.0, 32.5, 20.0 ],
					"id" : "obj-118"
				}

			}
, 			{
				"box" : 				{
					"maxclass" : "number",
					"outlettype" : [ "int", "bang" ],
					"fontsize" : 12.0,
					"presentation_rect" : [ 1192.0, 761.0, 0.0, 0.0 ],
					"numinlets" : 1,
					"fontname" : "Arial",
					"numoutlets" : 2,
					"patching_rect" : [ 1192.0, 761.0, 50.0, 20.0 ],
					"id" : "obj-117"
				}

			}
, 			{
				"box" : 				{
					"maxclass" : "newobj",
					"text" : "+ 600",
					"outlettype" : [ "int" ],
					"fontsize" : 12.0,
					"numinlets" : 2,
					"fontname" : "Arial",
					"numoutlets" : 1,
					"patching_rect" : [ 1187.0, 729.0, 41.0, 20.0 ],
					"id" : "obj-116"
				}

			}
, 			{
				"box" : 				{
					"maxclass" : "newobj",
					"text" : "* 1700.",
					"outlettype" : [ "float" ],
					"fontsize" : 12.0,
					"numinlets" : 2,
					"fontname" : "Arial",
					"numoutlets" : 1,
					"patching_rect" : [ 1188.0, 700.0, 49.0, 20.0 ],
					"id" : "obj-115"
				}

			}
, 			{
				"box" : 				{
					"maxclass" : "newobj",
					"text" : "/ 300.",
					"outlettype" : [ "float" ],
					"fontsize" : 12.0,
					"numinlets" : 2,
					"fontname" : "Arial",
					"numoutlets" : 1,
					"patching_rect" : [ 1172.0, 671.0, 41.0, 20.0 ],
					"id" : "obj-114"
				}

			}
, 			{
				"box" : 				{
					"maxclass" : "number",
					"outlettype" : [ "int", "bang" ],
					"minimum" : 5,
					"fontsize" : 12.0,
					"maximum" : 30,
					"presentation_rect" : [ 1257.0, 647.0, 0.0, 0.0 ],
					"numinlets" : 1,
					"fontname" : "Arial",
					"numoutlets" : 2,
					"patching_rect" : [ 1234.0, 562.0, 50.0, 20.0 ],
					"id" : "obj-110"
				}

			}
, 			{
				"box" : 				{
					"maxclass" : "toggle",
					"outlettype" : [ "int" ],
					"presentation_rect" : [ 1212.0, 637.0, 0.0, 0.0 ],
					"numinlets" : 1,
					"numoutlets" : 1,
					"patching_rect" : [ 1189.0, 557.0, 20.0, 20.0 ],
					"id" : "obj-111"
				}

			}
, 			{
				"box" : 				{
					"maxclass" : "newobj",
					"text" : "metro 100",
					"outlettype" : [ "bang" ],
					"fontsize" : 12.0,
					"presentation_rect" : [ 1187.0, 668.0, 0.0, 0.0 ],
					"numinlets" : 2,
					"fontname" : "Arial",
					"numoutlets" : 1,
					"patching_rect" : [ 1164.0, 588.0, 65.0, 20.0 ],
					"id" : "obj-112"
				}

			}
, 			{
				"box" : 				{
					"maxclass" : "newobj",
					"text" : "counter 2 0 300",
					"outlettype" : [ "int", "", "", "int" ],
					"fontsize" : 12.0,
					"numinlets" : 5,
					"fontname" : "Arial",
					"numoutlets" : 4,
					"patching_rect" : [ 1169.0, 640.0, 94.0, 20.0 ],
					"id" : "obj-113"
				}

			}
, 			{
				"box" : 				{
					"maxclass" : "number",
					"outlettype" : [ "int", "bang" ],
					"minimum" : 2,
					"fontsize" : 12.0,
					"maximum" : 100,
					"numinlets" : 1,
					"fontname" : "Arial",
					"numoutlets" : 2,
					"patching_rect" : [ 1285.0, 280.0, 50.0, 20.0 ],
					"id" : "obj-109"
				}

			}
, 			{
				"box" : 				{
					"maxclass" : "number",
					"outlettype" : [ "int", "bang" ],
					"fontsize" : 12.0,
					"numinlets" : 1,
					"fontname" : "Arial",
					"numoutlets" : 2,
					"patching_rect" : [ 1261.0, 416.0, 50.0, 20.0 ],
					"id" : "obj-108"
				}

			}
, 			{
				"box" : 				{
					"maxclass" : "toggle",
					"outlettype" : [ "int" ],
					"numinlets" : 1,
					"numoutlets" : 1,
					"patching_rect" : [ 1240.0, 270.0, 20.0, 20.0 ],
					"id" : "obj-107"
				}

			}
, 			{
				"box" : 				{
					"maxclass" : "newobj",
					"text" : "metro 100",
					"outlettype" : [ "bang" ],
					"fontsize" : 12.0,
					"numinlets" : 2,
					"fontname" : "Arial",
					"numoutlets" : 1,
					"patching_rect" : [ 1215.0, 301.0, 65.0, 20.0 ],
					"id" : "obj-104"
				}

			}
, 			{
				"box" : 				{
					"maxclass" : "newobj",
					"text" : "counter 2 600 2300",
					"outlettype" : [ "int", "", "", "int" ],
					"fontsize" : 12.0,
					"numinlets" : 5,
					"fontname" : "Arial",
					"numoutlets" : 4,
					"patching_rect" : [ 1220.0, 353.0, 114.0, 20.0 ],
					"id" : "obj-87"
				}

			}
, 			{
				"box" : 				{
					"maxclass" : "newobj",
					"text" : "+ 1",
					"outlettype" : [ "int" ],
					"fontsize" : 12.0,
					"numinlets" : 2,
					"fontname" : "Arial",
					"numoutlets" : 1,
					"patching_rect" : [ 1206.0, 103.0, 32.5, 20.0 ],
					"id" : "obj-106"
				}

			}
, 			{
				"box" : 				{
					"maxclass" : "newobj",
					"text" : "counter 2",
					"outlettype" : [ "int", "", "", "int" ],
					"fontsize" : 12.0,
					"numinlets" : 5,
					"fontname" : "Arial",
					"numoutlets" : 4,
					"patching_rect" : [ 1195.0, 75.0, 73.0, 20.0 ],
					"id" : "obj-105"
				}

			}
, 			{
				"box" : 				{
					"maxclass" : "toggle",
					"outlettype" : [ "int" ],
					"numinlets" : 1,
					"numoutlets" : 1,
					"patching_rect" : [ 1094.0, 30.0, 20.0, 20.0 ],
					"id" : "obj-100"
				}

			}
, 			{
				"box" : 				{
					"maxclass" : "newobj",
					"text" : "t b i",
					"outlettype" : [ "bang", "int" ],
					"fontsize" : 12.0,
					"numinlets" : 1,
					"fontname" : "Arial",
					"numoutlets" : 2,
					"patching_rect" : [ 1247.0, 124.0, 32.5, 20.0 ],
					"id" : "obj-94"
				}

			}
, 			{
				"box" : 				{
					"maxclass" : "newobj",
					"text" : "gate 3",
					"outlettype" : [ "", "", "" ],
					"fontsize" : 12.0,
					"numinlets" : 2,
					"fontname" : "Arial",
					"numoutlets" : 3,
					"patching_rect" : [ 1245.0, 165.0, 46.0, 20.0 ],
					"id" : "obj-88"
				}

			}
, 			{
				"box" : 				{
					"maxclass" : "newobj",
					"text" : "metro 1000",
					"outlettype" : [ "bang" ],
					"fontsize" : 12.0,
					"numinlets" : 2,
					"fontname" : "Arial",
					"numoutlets" : 1,
					"patching_rect" : [ 1215.0, 37.0, 71.0, 20.0 ],
					"id" : "obj-86"
				}

			}
, 			{
				"box" : 				{
					"maxclass" : "comment",
					"text" : "mean of 4 values",
					"fontsize" : 12.0,
					"numinlets" : 1,
					"fontname" : "Arial",
					"numoutlets" : 0,
					"patching_rect" : [ 118.0, 698.0, 102.0, 20.0 ],
					"id" : "obj-103"
				}

			}
, 			{
				"box" : 				{
					"maxclass" : "comment",
					"text" : "sensor rays",
					"fontsize" : 12.0,
					"numinlets" : 1,
					"fontname" : "Arial",
					"numoutlets" : 0,
					"patching_rect" : [ 101.0, 578.0, 73.0, 20.0 ],
					"id" : "obj-102"
				}

			}
, 			{
				"box" : 				{
					"maxclass" : "number",
					"outlettype" : [ "int", "bang" ],
					"fontsize" : 12.0,
					"numinlets" : 1,
					"fontname" : "Arial",
					"numoutlets" : 2,
					"patching_rect" : [ 101.0, 606.0, 50.0, 20.0 ],
					"id" : "obj-101"
				}

			}
, 			{
				"box" : 				{
					"maxclass" : "comment",
					"text" : "sensor id",
					"fontsize" : 12.0,
					"numinlets" : 1,
					"fontname" : "Arial",
					"numoutlets" : 0,
					"patching_rect" : [ 152.0, 606.0, 59.0, 20.0 ],
					"id" : "obj-99"
				}

			}
, 			{
				"box" : 				{
					"maxclass" : "comment",
					"text" : "averaged graph 1",
					"fontsize" : 12.0,
					"numinlets" : 1,
					"fontname" : "Arial",
					"numoutlets" : 0,
					"patching_rect" : [ 12.0, 520.0, 105.0, 20.0 ],
					"id" : "obj-98"
				}

			}
, 			{
				"box" : 				{
					"maxclass" : "newobj",
					"text" : "mean",
					"outlettype" : [ "float", "int" ],
					"fontsize" : 11.595187,
					"numinlets" : 1,
					"fontname" : "Arial",
					"numoutlets" : 2,
					"patching_rect" : [ 40.0, 720.0, 38.0, 20.0 ],
					"id" : "obj-95"
				}

			}
, 			{
				"box" : 				{
					"maxclass" : "newobj",
					"text" : "pack 0 0 0 0",
					"outlettype" : [ "" ],
					"fontsize" : 11.595187,
					"numinlets" : 4,
					"fontname" : "Arial",
					"numoutlets" : 1,
					"patching_rect" : [ 40.0, 697.0, 74.0, 20.0 ],
					"id" : "obj-96"
				}

			}
, 			{
				"box" : 				{
					"maxclass" : "newobj",
					"text" : "bucket 3",
					"outlettype" : [ "", "", "" ],
					"fontsize" : 11.595187,
					"numinlets" : 1,
					"fontname" : "Arial",
					"numoutlets" : 3,
					"patching_rect" : [ 54.181824, 671.0, 54.0, 20.0 ],
					"id" : "obj-97"
				}

			}
, 			{
				"box" : 				{
					"maxclass" : "multislider",
					"outlettype" : [ "", "" ],
					"setminmax" : [ 0.0, 500.0 ],
					"setstyle" : 3,
					"numinlets" : 1,
					"numoutlets" : 2,
					"patching_rect" : [ 40.0, 747.0, 158.0, 141.0 ],
					"id" : "obj-93"
				}

			}
, 			{
				"box" : 				{
					"maxclass" : "newobj",
					"text" : "r sensorReadings",
					"outlettype" : [ "" ],
					"fontsize" : 12.0,
					"numinlets" : 0,
					"fontname" : "Arial",
					"numoutlets" : 1,
					"patching_rect" : [ 9.0, 544.0, 105.0, 20.0 ],
					"id" : "obj-92"
				}

			}
, 			{
				"box" : 				{
					"maxclass" : "newobj",
					"text" : "t l",
					"outlettype" : [ "" ],
					"fontsize" : 12.0,
					"numinlets" : 1,
					"fontname" : "Arial",
					"numoutlets" : 1,
					"patching_rect" : [ 42.0, 608.0, 20.0, 20.0 ],
					"id" : "obj-89"
				}

			}
, 			{
				"box" : 				{
					"maxclass" : "newobj",
					"text" : "zl nth 2",
					"outlettype" : [ "", "" ],
					"fontsize" : 12.0,
					"numinlets" : 2,
					"fontname" : "Arial",
					"numoutlets" : 2,
					"patching_rect" : [ 42.0, 635.0, 49.0, 20.0 ],
					"id" : "obj-90"
				}

			}
, 			{
				"box" : 				{
					"maxclass" : "newobj",
					"text" : "route 1 2 3 4 5",
					"outlettype" : [ "", "", "", "", "", "" ],
					"fontsize" : 12.0,
					"numinlets" : 1,
					"fontname" : "Arial",
					"numoutlets" : 6,
					"patching_rect" : [ 12.0, 578.0, 88.0, 20.0 ],
					"id" : "obj-91"
				}

			}
, 			{
				"box" : 				{
					"maxclass" : "comment",
					"text" : "send servo values to arduino",
					"linecount" : 2,
					"fontsize" : 12.0,
					"numinlets" : 1,
					"fontname" : "Arial",
					"numoutlets" : 0,
					"patching_rect" : [ 500.0, 310.0, 102.0, 34.0 ],
					"id" : "obj-85"
				}

			}
, 			{
				"box" : 				{
					"maxclass" : "comment",
					"text" : "sensor graph 2",
					"fontsize" : 12.0,
					"numinlets" : 1,
					"fontname" : "Arial",
					"numoutlets" : 0,
					"patching_rect" : [ 515.0, 540.0, 91.0, 20.0 ],
					"id" : "obj-84"
				}

			}
, 			{
				"box" : 				{
					"maxclass" : "comment",
					"text" : "sensor graph 1",
					"fontsize" : 12.0,
					"numinlets" : 1,
					"fontname" : "Arial",
					"numoutlets" : 0,
					"patching_rect" : [ 298.0, 228.0, 91.0, 20.0 ],
					"id" : "obj-83"
				}

			}
, 			{
				"box" : 				{
					"maxclass" : "comment",
					"text" : "sensor osc send",
					"fontsize" : 12.0,
					"numinlets" : 1,
					"fontname" : "Arial",
					"numoutlets" : 0,
					"patching_rect" : [ 890.0, 570.0, 98.0, 20.0 ],
					"id" : "obj-82"
				}

			}
, 			{
				"box" : 				{
					"maxclass" : "comment",
					"text" : "servo osc receive / parsing",
					"fontsize" : 12.0,
					"numinlets" : 1,
					"fontname" : "Arial",
					"numoutlets" : 0,
					"patching_rect" : [ 885.0, 375.0, 153.0, 20.0 ],
					"id" : "obj-81"
				}

			}
, 			{
				"box" : 				{
					"maxclass" : "comment",
					"text" : "serial setup",
					"fontsize" : 12.0,
					"numinlets" : 1,
					"fontname" : "Arial",
					"numoutlets" : 0,
					"patching_rect" : [ 85.0, 5.0, 72.0, 20.0 ],
					"id" : "obj-80"
				}

			}
, 			{
				"box" : 				{
					"maxclass" : "comment",
					"text" : "servo manual test",
					"fontsize" : 12.0,
					"numinlets" : 1,
					"fontname" : "Arial",
					"numoutlets" : 0,
					"patching_rect" : [ 870.0, 20.0, 105.0, 20.0 ],
					"id" : "obj-79"
				}

			}
, 			{
				"box" : 				{
					"maxclass" : "comment",
					"text" : "serial parsing",
					"fontsize" : 12.0,
					"numinlets" : 1,
					"fontname" : "Arial",
					"numoutlets" : 0,
					"patching_rect" : [ 695.0, 125.0, 82.0, 20.0 ],
					"id" : "obj-78"
				}

			}
, 			{
				"box" : 				{
					"maxclass" : "comment",
					"text" : "receive sensor values from arduino",
					"linecount" : 3,
					"fontsize" : 12.0,
					"numinlets" : 1,
					"fontname" : "Arial",
					"numoutlets" : 0,
					"patching_rect" : [ 110.0, 330.0, 86.0, 48.0 ],
					"id" : "obj-77"
				}

			}
, 			{
				"box" : 				{
					"maxclass" : "newobj",
					"text" : "s toSerial",
					"fontsize" : 12.0,
					"numinlets" : 1,
					"fontname" : "Arial",
					"numoutlets" : 0,
					"patching_rect" : [ 230.0, 110.0, 61.0, 20.0 ],
					"id" : "obj-76"
				}

			}
, 			{
				"box" : 				{
					"maxclass" : "comment",
					"text" : "print out all available com ports to console",
					"fontsize" : 12.0,
					"numinlets" : 1,
					"fontname" : "Arial",
					"numoutlets" : 0,
					"patching_rect" : [ 10.0, 160.0, 234.0, 20.0 ],
					"id" : "obj-75"
				}

			}
, 			{
				"box" : 				{
					"maxclass" : "newobj",
					"text" : "v servoValues",
					"outlettype" : [ "" ],
					"fontsize" : 12.0,
					"numinlets" : 1,
					"fontname" : "Arial",
					"numoutlets" : 1,
					"patching_rect" : [ 875.0, 301.0, 86.0, 20.0 ],
					"id" : "obj-74"
				}

			}
, 			{
				"box" : 				{
					"maxclass" : "newobj",
					"text" : "r sensorReadings",
					"outlettype" : [ "" ],
					"fontsize" : 12.0,
					"numinlets" : 0,
					"fontname" : "Arial",
					"numoutlets" : 1,
					"patching_rect" : [ 635.0, 80.0, 105.0, 20.0 ],
					"id" : "obj-73"
				}

			}
, 			{
				"box" : 				{
					"maxclass" : "newobj",
					"text" : "r sensorReadings",
					"outlettype" : [ "" ],
					"fontsize" : 12.0,
					"numinlets" : 0,
					"fontname" : "Arial",
					"numoutlets" : 1,
					"patching_rect" : [ 890.0, 600.0, 105.0, 20.0 ],
					"id" : "obj-68"
				}

			}
, 			{
				"box" : 				{
					"maxclass" : "newobj",
					"text" : "t b l",
					"outlettype" : [ "bang", "" ],
					"fontsize" : 12.0,
					"numinlets" : 1,
					"fontname" : "Arial",
					"numoutlets" : 2,
					"patching_rect" : [ 890.0, 625.0, 32.5, 20.0 ],
					"id" : "obj-65"
				}

			}
, 			{
				"box" : 				{
					"maxclass" : "newobj",
					"text" : "r sensorReadings",
					"outlettype" : [ "" ],
					"fontsize" : 12.0,
					"numinlets" : 0,
					"fontname" : "Arial",
					"numoutlets" : 1,
					"patching_rect" : [ 510.0, 570.0, 105.0, 20.0 ],
					"id" : "obj-50"
				}

			}
, 			{
				"box" : 				{
					"maxclass" : "newobj",
					"text" : "loadbang",
					"outlettype" : [ "bang" ],
					"fontsize" : 12.0,
					"numinlets" : 1,
					"fontname" : "Arial",
					"numoutlets" : 1,
					"patching_rect" : [ 620.0, 570.0, 60.0, 20.0 ],
					"id" : "obj-35"
				}

			}
, 			{
				"box" : 				{
					"maxclass" : "newobj",
					"text" : "s sensorReadings",
					"fontsize" : 12.0,
					"numinlets" : 1,
					"fontname" : "Arial",
					"numoutlets" : 0,
					"patching_rect" : [ 10.0, 480.0, 107.0, 20.0 ],
					"id" : "obj-29"
				}

			}
, 			{
				"box" : 				{
					"maxclass" : "newobj",
					"text" : "r sensorReadings",
					"outlettype" : [ "" ],
					"fontsize" : 12.0,
					"numinlets" : 0,
					"fontname" : "Arial",
					"numoutlets" : 1,
					"patching_rect" : [ 298.0, 258.0, 105.0, 20.0 ],
					"id" : "obj-6"
				}

			}
, 			{
				"box" : 				{
					"maxclass" : "newobj",
					"text" : "udpreceive 3333",
					"outlettype" : [ "" ],
					"fontsize" : 12.0,
					"numinlets" : 1,
					"fontname" : "Arial",
					"numoutlets" : 1,
					"patching_rect" : [ 885.0, 405.0, 99.0, 20.0 ],
					"id" : "obj-11"
				}

			}
, 			{
				"box" : 				{
					"maxclass" : "comment",
					"text" : "serial com loop duration check",
					"fontsize" : 12.0,
					"numinlets" : 1,
					"fontname" : "Arial",
					"numoutlets" : 0,
					"patching_rect" : [ 365.0, 145.0, 173.0, 20.0 ],
					"id" : "obj-67"
				}

			}
, 			{
				"box" : 				{
					"maxclass" : "comment",
					"text" : "serial com loop duration in ms",
					"fontsize" : 12.0,
					"numinlets" : 1,
					"fontname" : "Arial",
					"numoutlets" : 0,
					"patching_rect" : [ 321.0, 47.0, 170.0, 20.0 ],
					"id" : "obj-66"
				}

			}
, 			{
				"box" : 				{
					"maxclass" : "newobj",
					"text" : "loadbang",
					"outlettype" : [ "bang" ],
					"fontsize" : 12.0,
					"numinlets" : 1,
					"fontname" : "Arial",
					"numoutlets" : 1,
					"patching_rect" : [ 555.0, 190.0, 60.0, 20.0 ],
					"id" : "obj-64"
				}

			}
, 			{
				"box" : 				{
					"maxclass" : "comment",
					"text" : "serial com loop enabled",
					"linecount" : 2,
					"fontsize" : 12.0,
					"numinlets" : 1,
					"fontname" : "Arial",
					"numoutlets" : 0,
					"patching_rect" : [ 500.0, 215.0, 79.0, 34.0 ],
					"id" : "obj-63"
				}

			}
, 			{
				"box" : 				{
					"maxclass" : "toggle",
					"outlettype" : [ "int" ],
					"numinlets" : 1,
					"numoutlets" : 1,
					"patching_rect" : [ 590.0, 215.0, 20.0, 20.0 ],
					"id" : "obj-62"
				}

			}
, 			{
				"box" : 				{
					"maxclass" : "newobj",
					"text" : "gate",
					"outlettype" : [ "" ],
					"fontsize" : 12.0,
					"numinlets" : 2,
					"fontname" : "Arial",
					"numoutlets" : 1,
					"patching_rect" : [ 615.0, 215.0, 43.0, 20.0 ],
					"id" : "obj-60"
				}

			}
, 			{
				"box" : 				{
					"maxclass" : "newobj",
					"text" : "loadbang",
					"outlettype" : [ "bang" ],
					"fontsize" : 12.0,
					"numinlets" : 1,
					"fontname" : "Arial",
					"numoutlets" : 1,
					"patching_rect" : [ 408.0, 258.0, 60.0, 20.0 ],
					"id" : "obj-59"
				}

			}
, 			{
				"box" : 				{
					"maxclass" : "comment",
					"text" : "IR",
					"fontsize" : 12.0,
					"numinlets" : 1,
					"fontname" : "Arial",
					"numoutlets" : 0,
					"patching_rect" : [ 540.0, 595.0, 22.0, 20.0 ],
					"id" : "obj-58"
				}

			}
, 			{
				"box" : 				{
					"maxclass" : "comment",
					"text" : "IR",
					"fontsize" : 12.0,
					"numinlets" : 1,
					"fontname" : "Arial",
					"numoutlets" : 0,
					"patching_rect" : [ 328.0, 283.0, 22.0, 20.0 ],
					"id" : "obj-55"
				}

			}
, 			{
				"box" : 				{
					"maxclass" : "message",
					"text" : "2",
					"outlettype" : [ "" ],
					"fontsize" : 12.0,
					"numinlets" : 2,
					"fontname" : "Arial",
					"numoutlets" : 1,
					"patching_rect" : [ 620.0, 595.0, 32.5, 18.0 ],
					"id" : "obj-54"
				}

			}
, 			{
				"box" : 				{
					"maxclass" : "message",
					"text" : "1",
					"outlettype" : [ "" ],
					"fontsize" : 12.0,
					"numinlets" : 2,
					"fontname" : "Arial",
					"numoutlets" : 1,
					"patching_rect" : [ 408.0, 283.0, 32.5, 18.0 ],
					"id" : "obj-51"
				}

			}
, 			{
				"box" : 				{
					"maxclass" : "comment",
					"text" : "start serial communication",
					"fontsize" : 12.0,
					"numinlets" : 1,
					"fontname" : "Arial",
					"numoutlets" : 0,
					"patching_rect" : [ 485.0, 110.0, 150.0, 20.0 ],
					"id" : "obj-49"
				}

			}
, 			{
				"box" : 				{
					"maxclass" : "newobj",
					"text" : "delay 3000",
					"outlettype" : [ "bang" ],
					"fontsize" : 12.0,
					"numinlets" : 2,
					"fontname" : "Arial",
					"numoutlets" : 1,
					"patching_rect" : [ 535.0, 80.0, 69.0, 20.0 ],
					"id" : "obj-46"
				}

			}
, 			{
				"box" : 				{
					"maxclass" : "newobj",
					"text" : "loadbang",
					"outlettype" : [ "bang" ],
					"fontsize" : 12.0,
					"numinlets" : 1,
					"fontname" : "Arial",
					"numoutlets" : 1,
					"patching_rect" : [ 535.0, 55.0, 60.0, 20.0 ],
					"id" : "obj-44"
				}

			}
, 			{
				"box" : 				{
					"maxclass" : "newobj",
					"text" : "udpsend 127.0.0.1 3334",
					"fontsize" : 12.0,
					"numinlets" : 1,
					"fontname" : "Arial",
					"numoutlets" : 0,
					"patching_rect" : [ 890.0, 745.0, 140.0, 20.0 ],
					"id" : "obj-36"
				}

			}
, 			{
				"box" : 				{
					"maxclass" : "newobj",
					"text" : "route 1 2 3 4 5",
					"outlettype" : [ "", "", "", "", "", "" ],
					"fontsize" : 12.0,
					"numinlets" : 1,
					"fontname" : "Arial",
					"numoutlets" : 6,
					"patching_rect" : [ 905.0, 650.0, 194.0, 20.0 ],
					"id" : "obj-34"
				}

			}
, 			{
				"box" : 				{
					"maxclass" : "newobj",
					"text" : "pack /adc 0 0 0 0 0 0 0 0 0 0 0 0 0 0 0 0 0 0 0 0 0 0 0 0 0 0 0 0 0 0 0 0 0 0 0 0 0 0 0 0 0 0 0 0 0 0",
					"linecount" : 3,
					"outlettype" : [ "" ],
					"fontsize" : 12.0,
					"numinlets" : 47,
					"fontname" : "Arial",
					"numoutlets" : 1,
					"patching_rect" : [ 890.0, 685.0, 219.0, 48.0 ],
					"id" : "obj-28"
				}

			}
, 			{
				"box" : 				{
					"maxclass" : "message",
					"text" : "set $1",
					"outlettype" : [ "" ],
					"fontsize" : 12.0,
					"numinlets" : 2,
					"fontname" : "Arial",
					"numoutlets" : 1,
					"patching_rect" : [ 710.0, 280.0, 43.0, 18.0 ],
					"id" : "obj-31"
				}

			}
, 			{
				"box" : 				{
					"maxclass" : "toggle",
					"outlettype" : [ "int" ],
					"numinlets" : 1,
					"numoutlets" : 1,
					"patching_rect" : [ 710.0, 255.0, 20.0, 20.0 ],
					"id" : "obj-14"
				}

			}
, 			{
				"box" : 				{
					"maxclass" : "newobj",
					"text" : "v servoValues",
					"outlettype" : [ "" ],
					"fontsize" : 12.0,
					"numinlets" : 1,
					"fontname" : "Arial",
					"numoutlets" : 1,
					"patching_rect" : [ 885.0, 495.0, 86.0, 20.0 ],
					"id" : "obj-21"
				}

			}
, 			{
				"box" : 				{
					"maxclass" : "newobj",
					"text" : "loadbang",
					"outlettype" : [ "bang" ],
					"fontsize" : 12.0,
					"numinlets" : 1,
					"fontname" : "Arial",
					"numoutlets" : 1,
					"patching_rect" : [ 985.0, 130.0, 60.0, 20.0 ],
					"id" : "obj-27"
				}

			}
, 			{
				"box" : 				{
					"maxclass" : "message",
					"text" : "700",
					"outlettype" : [ "" ],
					"fontsize" : 12.0,
					"numinlets" : 2,
					"fontname" : "Arial",
					"numoutlets" : 1,
					"patching_rect" : [ 985.0, 155.0, 32.5, 18.0 ],
					"id" : "obj-5"
				}

			}
, 			{
				"box" : 				{
					"maxclass" : "newobj",
					"text" : "route 0",
					"outlettype" : [ "", "" ],
					"fontsize" : 12.0,
					"numinlets" : 1,
					"fontname" : "Arial",
					"numoutlets" : 2,
					"patching_rect" : [ 885.0, 465.0, 48.0, 20.0 ],
					"id" : "obj-57"
				}

			}
, 			{
				"box" : 				{
					"maxclass" : "newobj",
					"text" : "route /servo",
					"outlettype" : [ "", "" ],
					"fontsize" : 12.0,
					"numinlets" : 1,
					"fontname" : "Arial",
					"numoutlets" : 2,
					"patching_rect" : [ 885.0, 435.0, 74.0, 20.0 ],
					"id" : "obj-56"
				}

			}
, 			{
				"box" : 				{
					"maxclass" : "newobj",
					"text" : "v servoValues",
					"outlettype" : [ "" ],
					"fontsize" : 12.0,
					"numinlets" : 1,
					"fontname" : "Arial",
					"numoutlets" : 1,
					"patching_rect" : [ 615.0, 255.0, 86.0, 20.0 ],
					"id" : "obj-48"
				}

			}
, 			{
				"box" : 				{
					"maxclass" : "newobj",
					"text" : "prepend 1",
					"outlettype" : [ "" ],
					"fontsize" : 12.0,
					"numinlets" : 1,
					"fontname" : "Arial",
					"numoutlets" : 1,
					"patching_rect" : [ 615.0, 305.0, 65.0, 20.0 ],
					"id" : "obj-47"
				}

			}
, 			{
				"box" : 				{
					"maxclass" : "number",
					"outlettype" : [ "int", "bang" ],
					"minimum" : 550,
					"fontsize" : 12.0,
					"maximum" : 2450,
					"numinlets" : 1,
					"fontname" : "Arial",
					"numoutlets" : 2,
					"patching_rect" : [ 940.0, 215.0, 50.0, 20.0 ],
					"id" : "obj-45"
				}

			}
, 			{
				"box" : 				{
					"maxclass" : "newobj",
					"text" : "pak 1000 1000 1000 1000 1000 1000 1000 1000 1000 1000 1000 1000 1000 1000 1000 1000 1000 1000",
					"linecount" : 3,
					"outlettype" : [ "" ],
					"fontsize" : 12.0,
					"numinlets" : 18,
					"fontname" : "Arial",
					"numoutlets" : 1,
					"patching_rect" : [ 895.0, 283.0, 220.0, 48.0 ],
					"id" : "obj-12"
				}

			}
, 			{
				"box" : 				{
					"maxclass" : "number",
					"outlettype" : [ "int", "bang" ],
					"fontsize" : 12.0,
					"numinlets" : 1,
					"fontname" : "Arial",
					"numoutlets" : 2,
					"patching_rect" : [ 565.0, 595.0, 50.0, 20.0 ],
					"id" : "obj-72"
				}

			}
, 			{
				"box" : 				{
					"maxclass" : "multislider",
					"outlettype" : [ "", "" ],
					"setminmax" : [ 0.0, 470.0 ],
					"size" : 5,
					"setstyle" : 1,
					"numinlets" : 1,
					"numoutlets" : 2,
					"patching_rect" : [ 510.0, 650.0, 158.0, 141.0 ],
					"id" : "obj-71"
				}

			}
, 			{
				"box" : 				{
					"maxclass" : "newobj",
					"text" : "p",
					"outlettype" : [ "" ],
					"fontsize" : 12.0,
					"numinlets" : 2,
					"fontname" : "Arial",
					"numoutlets" : 1,
					"patching_rect" : [ 510.0, 620.0, 100.0, 20.0 ],
					"id" : "obj-70",
					"patcher" : 					{
						"fileversion" : 1,
						"rect" : [ 50.0, 94.0, 640.0, 480.0 ],
						"bglocked" : 0,
						"defrect" : [ 50.0, 94.0, 640.0, 480.0 ],
						"openrect" : [ 0.0, 0.0, 0.0, 0.0 ],
						"openinpresentation" : 0,
						"default_fontsize" : 12.0,
						"default_fontface" : 0,
						"default_fontname" : "Arial",
						"gridonopen" : 0,
						"gridsize" : [ 5.0, 5.0 ],
						"gridsnaponopen" : 0,
						"toolbarvisible" : 1,
						"boxanimatetime" : 200,
						"imprint" : 0,
						"metadata" : [  ],
						"boxes" : [ 							{
								"box" : 								{
									"maxclass" : "newobj",
									"text" : "t l",
									"outlettype" : [ "" ],
									"fontsize" : 12.0,
									"numinlets" : 1,
									"fontname" : "Arial",
									"numoutlets" : 1,
									"patching_rect" : [ 294.0, 156.0, 20.0, 20.0 ],
									"id" : "obj-65"
								}

							}
, 							{
								"box" : 								{
									"maxclass" : "newobj",
									"text" : "t l",
									"outlettype" : [ "" ],
									"fontsize" : 12.0,
									"numinlets" : 1,
									"fontname" : "Arial",
									"numoutlets" : 1,
									"patching_rect" : [ 232.0, 156.0, 20.0, 20.0 ],
									"id" : "obj-64"
								}

							}
, 							{
								"box" : 								{
									"maxclass" : "newobj",
									"text" : "t l",
									"outlettype" : [ "" ],
									"fontsize" : 12.0,
									"numinlets" : 1,
									"fontname" : "Arial",
									"numoutlets" : 1,
									"patching_rect" : [ 196.0, 158.0, 20.0, 20.0 ],
									"id" : "obj-63"
								}

							}
, 							{
								"box" : 								{
									"maxclass" : "newobj",
									"text" : "t l",
									"outlettype" : [ "" ],
									"fontsize" : 12.0,
									"numinlets" : 1,
									"fontname" : "Arial",
									"numoutlets" : 1,
									"patching_rect" : [ 145.0, 157.0, 20.0, 20.0 ],
									"id" : "obj-62"
								}

							}
, 							{
								"box" : 								{
									"maxclass" : "newobj",
									"text" : "t i",
									"outlettype" : [ "int" ],
									"fontsize" : 12.0,
									"numinlets" : 1,
									"fontname" : "Arial",
									"numoutlets" : 1,
									"patching_rect" : [ 339.0, 158.0, 20.0, 20.0 ],
									"id" : "obj-60"
								}

							}
, 							{
								"box" : 								{
									"maxclass" : "newobj",
									"text" : "t l",
									"outlettype" : [ "" ],
									"fontsize" : 12.0,
									"numinlets" : 1,
									"fontname" : "Arial",
									"numoutlets" : 1,
									"patching_rect" : [ 101.0, 157.0, 20.0, 20.0 ],
									"id" : "obj-59"
								}

							}
, 							{
								"box" : 								{
									"maxclass" : "newobj",
									"text" : "zl nth 1",
									"outlettype" : [ "", "" ],
									"fontsize" : 12.0,
									"numinlets" : 2,
									"fontname" : "Arial",
									"numoutlets" : 2,
									"patching_rect" : [ 304.0, 193.0, 49.0, 20.0 ],
									"id" : "obj-58"
								}

							}
, 							{
								"box" : 								{
									"maxclass" : "newobj",
									"text" : "zl nth 1",
									"outlettype" : [ "", "" ],
									"fontsize" : 12.0,
									"numinlets" : 2,
									"fontname" : "Arial",
									"numoutlets" : 2,
									"patching_rect" : [ 252.0, 193.0, 49.0, 20.0 ],
									"id" : "obj-57"
								}

							}
, 							{
								"box" : 								{
									"maxclass" : "newobj",
									"text" : "zl nth 1",
									"outlettype" : [ "", "" ],
									"fontsize" : 12.0,
									"numinlets" : 2,
									"fontname" : "Arial",
									"numoutlets" : 2,
									"patching_rect" : [ 195.0, 192.0, 49.0, 20.0 ],
									"id" : "obj-56"
								}

							}
, 							{
								"box" : 								{
									"maxclass" : "newobj",
									"text" : "zl nth 1",
									"outlettype" : [ "", "" ],
									"fontsize" : 12.0,
									"numinlets" : 2,
									"fontname" : "Arial",
									"numoutlets" : 2,
									"patching_rect" : [ 140.0, 192.0, 49.0, 20.0 ],
									"id" : "obj-55"
								}

							}
, 							{
								"box" : 								{
									"maxclass" : "newobj",
									"text" : "zl nth 1",
									"outlettype" : [ "", "" ],
									"fontsize" : 12.0,
									"numinlets" : 2,
									"fontname" : "Arial",
									"numoutlets" : 2,
									"patching_rect" : [ 89.0, 192.0, 49.0, 20.0 ],
									"id" : "obj-50"
								}

							}
, 							{
								"box" : 								{
									"maxclass" : "newobj",
									"text" : "pak 0 0 0 0 0",
									"outlettype" : [ "" ],
									"fontsize" : 12.0,
									"numinlets" : 5,
									"fontname" : "Arial",
									"numoutlets" : 1,
									"patching_rect" : [ 120.0, 223.0, 80.0, 20.0 ],
									"id" : "obj-44"
								}

							}
, 							{
								"box" : 								{
									"maxclass" : "newobj",
									"text" : "route 1 2 3 4 5",
									"outlettype" : [ "", "", "", "", "", "" ],
									"fontsize" : 12.0,
									"numinlets" : 1,
									"fontname" : "Arial",
									"numoutlets" : 6,
									"patching_rect" : [ 50.0, 100.0, 88.0, 20.0 ],
									"id" : "obj-12"
								}

							}
, 							{
								"box" : 								{
									"maxclass" : "inlet",
									"outlettype" : [ "" ],
									"numinlets" : 0,
									"numoutlets" : 1,
									"patching_rect" : [ 55.0, 40.0, 25.0, 25.0 ],
									"id" : "obj-66",
									"comment" : ""
								}

							}
, 							{
								"box" : 								{
									"maxclass" : "inlet",
									"outlettype" : [ "int" ],
									"numinlets" : 0,
									"numoutlets" : 1,
									"patching_rect" : [ 344.0, 40.0, 25.0, 25.0 ],
									"id" : "obj-67",
									"comment" : ""
								}

							}
, 							{
								"box" : 								{
									"maxclass" : "outlet",
									"numinlets" : 1,
									"numoutlets" : 0,
									"patching_rect" : [ 125.0, 303.0, 25.0, 25.0 ],
									"id" : "obj-68",
									"comment" : ""
								}

							}
 ],
						"lines" : [ 							{
								"patchline" : 								{
									"source" : [ "obj-59", 0 ],
									"destination" : [ "obj-50", 0 ],
									"hidden" : 0,
									"midpoints" : [  ]
								}

							}
, 							{
								"patchline" : 								{
									"source" : [ "obj-50", 0 ],
									"destination" : [ "obj-44", 0 ],
									"hidden" : 0,
									"midpoints" : [  ]
								}

							}
, 							{
								"patchline" : 								{
									"source" : [ "obj-55", 0 ],
									"destination" : [ "obj-44", 1 ],
									"hidden" : 0,
									"midpoints" : [  ]
								}

							}
, 							{
								"patchline" : 								{
									"source" : [ "obj-56", 0 ],
									"destination" : [ "obj-44", 2 ],
									"hidden" : 0,
									"midpoints" : [  ]
								}

							}
, 							{
								"patchline" : 								{
									"source" : [ "obj-57", 0 ],
									"destination" : [ "obj-44", 3 ],
									"hidden" : 0,
									"midpoints" : [  ]
								}

							}
, 							{
								"patchline" : 								{
									"source" : [ "obj-58", 0 ],
									"destination" : [ "obj-44", 4 ],
									"hidden" : 0,
									"midpoints" : [  ]
								}

							}
, 							{
								"patchline" : 								{
									"source" : [ "obj-60", 0 ],
									"destination" : [ "obj-57", 1 ],
									"hidden" : 0,
									"midpoints" : [  ]
								}

							}
, 							{
								"patchline" : 								{
									"source" : [ "obj-60", 0 ],
									"destination" : [ "obj-58", 1 ],
									"hidden" : 0,
									"midpoints" : [  ]
								}

							}
, 							{
								"patchline" : 								{
									"source" : [ "obj-60", 0 ],
									"destination" : [ "obj-56", 1 ],
									"hidden" : 0,
									"midpoints" : [  ]
								}

							}
, 							{
								"patchline" : 								{
									"source" : [ "obj-60", 0 ],
									"destination" : [ "obj-55", 1 ],
									"hidden" : 0,
									"midpoints" : [  ]
								}

							}
, 							{
								"patchline" : 								{
									"source" : [ "obj-60", 0 ],
									"destination" : [ "obj-50", 1 ],
									"hidden" : 0,
									"midpoints" : [  ]
								}

							}
, 							{
								"patchline" : 								{
									"source" : [ "obj-62", 0 ],
									"destination" : [ "obj-55", 0 ],
									"hidden" : 0,
									"midpoints" : [  ]
								}

							}
, 							{
								"patchline" : 								{
									"source" : [ "obj-63", 0 ],
									"destination" : [ "obj-56", 0 ],
									"hidden" : 0,
									"midpoints" : [  ]
								}

							}
, 							{
								"patchline" : 								{
									"source" : [ "obj-64", 0 ],
									"destination" : [ "obj-57", 0 ],
									"hidden" : 0,
									"midpoints" : [  ]
								}

							}
, 							{
								"patchline" : 								{
									"source" : [ "obj-65", 0 ],
									"destination" : [ "obj-58", 0 ],
									"hidden" : 0,
									"midpoints" : [  ]
								}

							}
, 							{
								"patchline" : 								{
									"source" : [ "obj-67", 0 ],
									"destination" : [ "obj-60", 0 ],
									"hidden" : 0,
									"midpoints" : [  ]
								}

							}
, 							{
								"patchline" : 								{
									"source" : [ "obj-44", 0 ],
									"destination" : [ "obj-68", 0 ],
									"hidden" : 0,
									"midpoints" : [  ]
								}

							}
, 							{
								"patchline" : 								{
									"source" : [ "obj-66", 0 ],
									"destination" : [ "obj-12", 0 ],
									"hidden" : 0,
									"midpoints" : [  ]
								}

							}
, 							{
								"patchline" : 								{
									"source" : [ "obj-12", 4 ],
									"destination" : [ "obj-65", 0 ],
									"hidden" : 0,
									"midpoints" : [  ]
								}

							}
, 							{
								"patchline" : 								{
									"source" : [ "obj-12", 3 ],
									"destination" : [ "obj-64", 0 ],
									"hidden" : 0,
									"midpoints" : [  ]
								}

							}
, 							{
								"patchline" : 								{
									"source" : [ "obj-12", 2 ],
									"destination" : [ "obj-63", 0 ],
									"hidden" : 0,
									"midpoints" : [  ]
								}

							}
, 							{
								"patchline" : 								{
									"source" : [ "obj-12", 1 ],
									"destination" : [ "obj-62", 0 ],
									"hidden" : 0,
									"midpoints" : [  ]
								}

							}
, 							{
								"patchline" : 								{
									"source" : [ "obj-12", 0 ],
									"destination" : [ "obj-59", 0 ],
									"hidden" : 0,
									"midpoints" : [  ]
								}

							}
 ]
					}
,
					"saved_object_attributes" : 					{
						"fontface" : 0,
						"fontsize" : 12.0,
						"globalpatchername" : "",
						"default_fontface" : 0,
						"default_fontname" : "Arial",
						"fontname" : "Arial",
						"default_fontsize" : 12.0
					}

				}

			}
, 			{
				"box" : 				{
					"maxclass" : "newobj",
					"text" : "p",
					"outlettype" : [ "" ],
					"fontsize" : 12.0,
					"numinlets" : 2,
					"fontname" : "Arial",
					"numoutlets" : 1,
					"patching_rect" : [ 298.0, 308.0, 100.0, 20.0 ],
					"id" : "obj-69",
					"patcher" : 					{
						"fileversion" : 1,
						"rect" : [ 25.0, 69.0, 640.0, 480.0 ],
						"bglocked" : 0,
						"defrect" : [ 25.0, 69.0, 640.0, 480.0 ],
						"openrect" : [ 0.0, 0.0, 0.0, 0.0 ],
						"openinpresentation" : 0,
						"default_fontsize" : 12.0,
						"default_fontface" : 0,
						"default_fontname" : "Arial",
						"gridonopen" : 0,
						"gridsize" : [ 5.0, 5.0 ],
						"gridsnaponopen" : 0,
						"toolbarvisible" : 1,
						"boxanimatetime" : 200,
						"imprint" : 0,
						"metadata" : [  ],
						"boxes" : [ 							{
								"box" : 								{
									"maxclass" : "newobj",
									"text" : "t l",
									"outlettype" : [ "" ],
									"fontsize" : 12.0,
									"numinlets" : 1,
									"fontname" : "Arial",
									"numoutlets" : 1,
									"patching_rect" : [ 294.0, 156.0, 20.0, 20.0 ],
									"id" : "obj-65"
								}

							}
, 							{
								"box" : 								{
									"maxclass" : "newobj",
									"text" : "t l",
									"outlettype" : [ "" ],
									"fontsize" : 12.0,
									"numinlets" : 1,
									"fontname" : "Arial",
									"numoutlets" : 1,
									"patching_rect" : [ 232.0, 156.0, 20.0, 20.0 ],
									"id" : "obj-64"
								}

							}
, 							{
								"box" : 								{
									"maxclass" : "newobj",
									"text" : "t l",
									"outlettype" : [ "" ],
									"fontsize" : 12.0,
									"numinlets" : 1,
									"fontname" : "Arial",
									"numoutlets" : 1,
									"patching_rect" : [ 196.0, 158.0, 20.0, 20.0 ],
									"id" : "obj-63"
								}

							}
, 							{
								"box" : 								{
									"maxclass" : "newobj",
									"text" : "t l",
									"outlettype" : [ "" ],
									"fontsize" : 12.0,
									"numinlets" : 1,
									"fontname" : "Arial",
									"numoutlets" : 1,
									"patching_rect" : [ 145.0, 157.0, 20.0, 20.0 ],
									"id" : "obj-62"
								}

							}
, 							{
								"box" : 								{
									"maxclass" : "newobj",
									"text" : "t i",
									"outlettype" : [ "int" ],
									"fontsize" : 12.0,
									"numinlets" : 1,
									"fontname" : "Arial",
									"numoutlets" : 1,
									"patching_rect" : [ 339.0, 158.0, 20.0, 20.0 ],
									"id" : "obj-60"
								}

							}
, 							{
								"box" : 								{
									"maxclass" : "newobj",
									"text" : "t l",
									"outlettype" : [ "" ],
									"fontsize" : 12.0,
									"numinlets" : 1,
									"fontname" : "Arial",
									"numoutlets" : 1,
									"patching_rect" : [ 101.0, 157.0, 20.0, 20.0 ],
									"id" : "obj-59"
								}

							}
, 							{
								"box" : 								{
									"maxclass" : "newobj",
									"text" : "zl nth 1",
									"outlettype" : [ "", "" ],
									"fontsize" : 12.0,
									"numinlets" : 2,
									"fontname" : "Arial",
									"numoutlets" : 2,
									"patching_rect" : [ 304.0, 193.0, 49.0, 20.0 ],
									"id" : "obj-58"
								}

							}
, 							{
								"box" : 								{
									"maxclass" : "newobj",
									"text" : "zl nth 1",
									"outlettype" : [ "", "" ],
									"fontsize" : 12.0,
									"numinlets" : 2,
									"fontname" : "Arial",
									"numoutlets" : 2,
									"patching_rect" : [ 252.0, 193.0, 49.0, 20.0 ],
									"id" : "obj-57"
								}

							}
, 							{
								"box" : 								{
									"maxclass" : "newobj",
									"text" : "zl nth 1",
									"outlettype" : [ "", "" ],
									"fontsize" : 12.0,
									"numinlets" : 2,
									"fontname" : "Arial",
									"numoutlets" : 2,
									"patching_rect" : [ 195.0, 192.0, 49.0, 20.0 ],
									"id" : "obj-56"
								}

							}
, 							{
								"box" : 								{
									"maxclass" : "newobj",
									"text" : "zl nth 1",
									"outlettype" : [ "", "" ],
									"fontsize" : 12.0,
									"numinlets" : 2,
									"fontname" : "Arial",
									"numoutlets" : 2,
									"patching_rect" : [ 140.0, 192.0, 49.0, 20.0 ],
									"id" : "obj-55"
								}

							}
, 							{
								"box" : 								{
									"maxclass" : "newobj",
									"text" : "zl nth 1",
									"outlettype" : [ "", "" ],
									"fontsize" : 12.0,
									"numinlets" : 2,
									"fontname" : "Arial",
									"numoutlets" : 2,
									"patching_rect" : [ 89.0, 192.0, 49.0, 20.0 ],
									"id" : "obj-50"
								}

							}
, 							{
								"box" : 								{
									"maxclass" : "newobj",
									"text" : "pak 0 0 0 0 0",
									"outlettype" : [ "" ],
									"fontsize" : 12.0,
									"numinlets" : 5,
									"fontname" : "Arial",
									"numoutlets" : 1,
									"patching_rect" : [ 120.0, 223.0, 80.0, 20.0 ],
									"id" : "obj-44"
								}

							}
, 							{
								"box" : 								{
									"maxclass" : "newobj",
									"text" : "route 1 2 3 4 5",
									"outlettype" : [ "", "", "", "", "", "" ],
									"fontsize" : 12.0,
									"numinlets" : 1,
									"fontname" : "Arial",
									"numoutlets" : 6,
									"patching_rect" : [ 50.0, 100.0, 88.0, 20.0 ],
									"id" : "obj-12"
								}

							}
, 							{
								"box" : 								{
									"maxclass" : "inlet",
									"outlettype" : [ "" ],
									"numinlets" : 0,
									"numoutlets" : 1,
									"patching_rect" : [ 55.0, 40.0, 25.0, 25.0 ],
									"id" : "obj-66",
									"comment" : ""
								}

							}
, 							{
								"box" : 								{
									"maxclass" : "inlet",
									"outlettype" : [ "int" ],
									"numinlets" : 0,
									"numoutlets" : 1,
									"patching_rect" : [ 344.0, 40.0, 25.0, 25.0 ],
									"id" : "obj-67",
									"comment" : ""
								}

							}
, 							{
								"box" : 								{
									"maxclass" : "outlet",
									"numinlets" : 1,
									"numoutlets" : 0,
									"patching_rect" : [ 125.0, 303.0, 25.0, 25.0 ],
									"id" : "obj-68",
									"comment" : ""
								}

							}
 ],
						"lines" : [ 							{
								"patchline" : 								{
									"source" : [ "obj-44", 0 ],
									"destination" : [ "obj-68", 0 ],
									"hidden" : 0,
									"midpoints" : [  ]
								}

							}
, 							{
								"patchline" : 								{
									"source" : [ "obj-67", 0 ],
									"destination" : [ "obj-60", 0 ],
									"hidden" : 0,
									"midpoints" : [  ]
								}

							}
, 							{
								"patchline" : 								{
									"source" : [ "obj-65", 0 ],
									"destination" : [ "obj-58", 0 ],
									"hidden" : 0,
									"midpoints" : [  ]
								}

							}
, 							{
								"patchline" : 								{
									"source" : [ "obj-64", 0 ],
									"destination" : [ "obj-57", 0 ],
									"hidden" : 0,
									"midpoints" : [  ]
								}

							}
, 							{
								"patchline" : 								{
									"source" : [ "obj-63", 0 ],
									"destination" : [ "obj-56", 0 ],
									"hidden" : 0,
									"midpoints" : [  ]
								}

							}
, 							{
								"patchline" : 								{
									"source" : [ "obj-62", 0 ],
									"destination" : [ "obj-55", 0 ],
									"hidden" : 0,
									"midpoints" : [  ]
								}

							}
, 							{
								"patchline" : 								{
									"source" : [ "obj-60", 0 ],
									"destination" : [ "obj-50", 1 ],
									"hidden" : 0,
									"midpoints" : [  ]
								}

							}
, 							{
								"patchline" : 								{
									"source" : [ "obj-60", 0 ],
									"destination" : [ "obj-55", 1 ],
									"hidden" : 0,
									"midpoints" : [  ]
								}

							}
, 							{
								"patchline" : 								{
									"source" : [ "obj-60", 0 ],
									"destination" : [ "obj-56", 1 ],
									"hidden" : 0,
									"midpoints" : [  ]
								}

							}
, 							{
								"patchline" : 								{
									"source" : [ "obj-60", 0 ],
									"destination" : [ "obj-58", 1 ],
									"hidden" : 0,
									"midpoints" : [  ]
								}

							}
, 							{
								"patchline" : 								{
									"source" : [ "obj-60", 0 ],
									"destination" : [ "obj-57", 1 ],
									"hidden" : 0,
									"midpoints" : [  ]
								}

							}
, 							{
								"patchline" : 								{
									"source" : [ "obj-58", 0 ],
									"destination" : [ "obj-44", 4 ],
									"hidden" : 0,
									"midpoints" : [  ]
								}

							}
, 							{
								"patchline" : 								{
									"source" : [ "obj-57", 0 ],
									"destination" : [ "obj-44", 3 ],
									"hidden" : 0,
									"midpoints" : [  ]
								}

							}
, 							{
								"patchline" : 								{
									"source" : [ "obj-56", 0 ],
									"destination" : [ "obj-44", 2 ],
									"hidden" : 0,
									"midpoints" : [  ]
								}

							}
, 							{
								"patchline" : 								{
									"source" : [ "obj-55", 0 ],
									"destination" : [ "obj-44", 1 ],
									"hidden" : 0,
									"midpoints" : [  ]
								}

							}
, 							{
								"patchline" : 								{
									"source" : [ "obj-50", 0 ],
									"destination" : [ "obj-44", 0 ],
									"hidden" : 0,
									"midpoints" : [  ]
								}

							}
, 							{
								"patchline" : 								{
									"source" : [ "obj-59", 0 ],
									"destination" : [ "obj-50", 0 ],
									"hidden" : 0,
									"midpoints" : [  ]
								}

							}
, 							{
								"patchline" : 								{
									"source" : [ "obj-12", 0 ],
									"destination" : [ "obj-59", 0 ],
									"hidden" : 0,
									"midpoints" : [  ]
								}

							}
, 							{
								"patchline" : 								{
									"source" : [ "obj-12", 1 ],
									"destination" : [ "obj-62", 0 ],
									"hidden" : 0,
									"midpoints" : [  ]
								}

							}
, 							{
								"patchline" : 								{
									"source" : [ "obj-12", 2 ],
									"destination" : [ "obj-63", 0 ],
									"hidden" : 0,
									"midpoints" : [  ]
								}

							}
, 							{
								"patchline" : 								{
									"source" : [ "obj-12", 3 ],
									"destination" : [ "obj-64", 0 ],
									"hidden" : 0,
									"midpoints" : [  ]
								}

							}
, 							{
								"patchline" : 								{
									"source" : [ "obj-12", 4 ],
									"destination" : [ "obj-65", 0 ],
									"hidden" : 0,
									"midpoints" : [  ]
								}

							}
, 							{
								"patchline" : 								{
									"source" : [ "obj-66", 0 ],
									"destination" : [ "obj-12", 0 ],
									"hidden" : 0,
									"midpoints" : [  ]
								}

							}
 ]
					}
,
					"saved_object_attributes" : 					{
						"fontface" : 0,
						"fontsize" : 12.0,
						"globalpatchername" : "",
						"default_fontface" : 0,
						"default_fontname" : "Arial",
						"fontname" : "Arial",
						"default_fontsize" : 12.0
					}

				}

			}
, 			{
				"box" : 				{
					"maxclass" : "number",
					"outlettype" : [ "int", "bang" ],
					"fontsize" : 12.0,
					"numinlets" : 1,
					"fontname" : "Arial",
					"numoutlets" : 2,
					"patching_rect" : [ 353.0, 283.0, 50.0, 20.0 ],
					"id" : "obj-61"
				}

			}
, 			{
				"box" : 				{
					"maxclass" : "multislider",
					"outlettype" : [ "", "" ],
					"setminmax" : [ 0.0, 1024.0 ],
					"size" : 5,
					"setstyle" : 1,
					"numinlets" : 1,
					"numoutlets" : 2,
					"patching_rect" : [ 298.0, 338.0, 145.0, 452.0 ],
					"id" : "obj-43"
				}

			}
, 			{
				"box" : 				{
					"maxclass" : "message",
					"text" : "87",
					"outlettype" : [ "" ],
					"fontsize" : 12.0,
					"numinlets" : 2,
					"fontname" : "Arial",
					"numoutlets" : 1,
					"patching_rect" : [ 940.0, 50.0, 32.5, 18.0 ],
					"id" : "obj-42"
				}

			}
, 			{
				"box" : 				{
					"maxclass" : "message",
					"text" : "175",
					"outlettype" : [ "" ],
					"fontsize" : 12.0,
					"numinlets" : 2,
					"fontname" : "Arial",
					"numoutlets" : 1,
					"patching_rect" : [ 980.0, 50.0, 32.5, 18.0 ],
					"id" : "obj-41"
				}

			}
, 			{
				"box" : 				{
					"maxclass" : "message",
					"text" : "0",
					"outlettype" : [ "" ],
					"fontsize" : 12.0,
					"numinlets" : 2,
					"fontname" : "Arial",
					"numoutlets" : 1,
					"patching_rect" : [ 900.0, 50.0, 32.5, 18.0 ],
					"id" : "obj-38"
				}

			}
, 			{
				"box" : 				{
					"maxclass" : "dial",
					"outlettype" : [ "int" ],
					"size" : 170,
					"degrees" : 180,
					"numinlets" : 1,
					"numoutlets" : 1,
					"patching_rect" : [ 940.0, 85.0, 40.0, 40.0 ],
					"id" : "obj-40"
				}

			}
, 			{
				"box" : 				{
					"maxclass" : "newobj",
					"text" : "* 10.",
					"outlettype" : [ "float" ],
					"fontsize" : 12.0,
					"numinlets" : 2,
					"fontname" : "Arial",
					"numoutlets" : 1,
					"patching_rect" : [ 940.0, 130.0, 35.0, 20.0 ],
					"id" : "obj-39"
				}

			}
, 			{
				"box" : 				{
					"maxclass" : "newobj",
					"text" : "+ 550",
					"outlettype" : [ "int" ],
					"fontsize" : 12.0,
					"numinlets" : 2,
					"fontname" : "Arial",
					"numoutlets" : 1,
					"patching_rect" : [ 940.0, 155.0, 41.0, 20.0 ],
					"id" : "obj-37"
				}

			}
, 			{
				"box" : 				{
					"maxclass" : "number",
					"outlettype" : [ "int", "bang" ],
					"fontsize" : 12.0,
					"numinlets" : 1,
					"fontname" : "Arial",
					"numoutlets" : 2,
					"patching_rect" : [ 269.0, 47.0, 50.0, 20.0 ],
					"id" : "obj-33"
				}

			}
, 			{
				"box" : 				{
					"maxclass" : "number",
					"outlettype" : [ "int", "bang" ],
					"fontsize" : 12.0,
					"numinlets" : 1,
					"fontname" : "Arial",
					"numoutlets" : 2,
					"patching_rect" : [ 545.0, 145.0, 50.0, 20.0 ],
					"id" : "obj-32"
				}

			}
, 			{
				"box" : 				{
					"maxclass" : "newobj",
					"text" : "timer",
					"outlettype" : [ "float", "" ],
					"fontsize" : 12.0,
					"numinlets" : 2,
					"fontname" : "Arial",
					"numoutlets" : 2,
					"patching_rect" : [ 600.0, 145.0, 37.0, 20.0 ],
					"id" : "obj-30"
				}

			}
, 			{
				"box" : 				{
					"maxclass" : "button",
					"outlettype" : [ "bang" ],
					"numinlets" : 1,
					"numoutlets" : 1,
					"patching_rect" : [ 635.0, 110.0, 20.0, 20.0 ],
					"id" : "obj-23"
				}

			}
, 			{
				"box" : 				{
					"maxclass" : "newobj",
					"text" : "zl group 10",
					"outlettype" : [ "", "" ],
					"fontsize" : 12.0,
					"numinlets" : 2,
					"fontname" : "Arial",
					"numoutlets" : 2,
					"patching_rect" : [ 10.0, 450.0, 70.0, 20.0 ],
					"id" : "obj-18"
				}

			}
, 			{
				"box" : 				{
					"maxclass" : "newobj",
					"text" : "+ 0",
					"outlettype" : [ "int" ],
					"fontsize" : 12.0,
					"numinlets" : 2,
					"fontname" : "Arial",
					"numoutlets" : 1,
					"patching_rect" : [ 10.0, 420.0, 55.5, 20.0 ],
					"id" : "obj-26"
				}

			}
, 			{
				"box" : 				{
					"maxclass" : "newobj",
					"text" : "* 256",
					"outlettype" : [ "int" ],
					"fontsize" : 12.0,
					"numinlets" : 2,
					"fontname" : "Arial",
					"numoutlets" : 1,
					"patching_rect" : [ 10.0, 390.0, 39.0, 20.0 ],
					"id" : "obj-25"
				}

			}
, 			{
				"box" : 				{
					"maxclass" : "newobj",
					"text" : "unpack 0 0",
					"outlettype" : [ "int", "int" ],
					"fontsize" : 12.0,
					"numinlets" : 1,
					"fontname" : "Arial",
					"numoutlets" : 2,
					"patching_rect" : [ 10.0, 360.0, 69.0, 20.0 ],
					"id" : "obj-24"
				}

			}
, 			{
				"box" : 				{
					"maxclass" : "newobj",
					"text" : "zl group 2",
					"outlettype" : [ "", "" ],
					"fontsize" : 12.0,
					"numinlets" : 2,
					"fontname" : "Arial",
					"numoutlets" : 2,
					"patching_rect" : [ 10.0, 330.0, 63.0, 20.0 ],
					"id" : "obj-22"
				}

			}
, 			{
				"box" : 				{
					"maxclass" : "newobj",
					"text" : "r toSerial",
					"outlettype" : [ "" ],
					"fontsize" : 12.0,
					"numinlets" : 0,
					"fontname" : "Arial",
					"numoutlets" : 1,
					"patching_rect" : [ 10.0, 270.0, 59.0, 20.0 ],
					"id" : "obj-20"
				}

			}
, 			{
				"box" : 				{
					"maxclass" : "newobj",
					"text" : "loadbang",
					"outlettype" : [ "bang" ],
					"fontsize" : 12.0,
					"numinlets" : 1,
					"fontname" : "Arial",
					"numoutlets" : 1,
					"patching_rect" : [ 10.0, 5.0, 60.0, 20.0 ],
					"id" : "obj-16"
				}

			}
, 			{
				"box" : 				{
					"maxclass" : "newobj",
					"text" : "s toSerial",
					"fontsize" : 12.0,
					"numinlets" : 1,
					"fontname" : "Arial",
					"numoutlets" : 0,
					"patching_rect" : [ 655.0, 465.0, 61.0, 20.0 ],
					"id" : "obj-10"
				}

			}
, 			{
				"box" : 				{
					"maxclass" : "comment",
					"text" : "high byte",
					"fontsize" : 12.0,
					"numinlets" : 1,
					"fontname" : "Arial",
					"numoutlets" : 0,
					"patching_rect" : [ 685.0, 430.0, 59.0, 20.0 ],
					"id" : "obj-53"
				}

			}
, 			{
				"box" : 				{
					"maxclass" : "comment",
					"text" : "low byte",
					"fontsize" : 12.0,
					"numinlets" : 1,
					"fontname" : "Arial",
					"numoutlets" : 0,
					"patching_rect" : [ 620.0, 430.0, 55.0, 20.0 ],
					"id" : "obj-52"
				}

			}
, 			{
				"box" : 				{
					"maxclass" : "newobj",
					"text" : "i",
					"outlettype" : [ "int" ],
					"fontsize" : 12.0,
					"numinlets" : 2,
					"fontname" : "Arial",
					"numoutlets" : 1,
					"patching_rect" : [ 615.0, 355.0, 32.5, 20.0 ],
					"id" : "obj-19"
				}

			}
, 			{
				"box" : 				{
					"maxclass" : "newobj",
					"text" : "& 255",
					"outlettype" : [ "int" ],
					"fontsize" : 12.0,
					"numinlets" : 2,
					"fontname" : "Arial",
					"numoutlets" : 1,
					"patching_rect" : [ 685.0, 405.0, 42.0, 20.0 ],
					"id" : "obj-17"
				}

			}
, 			{
				"box" : 				{
					"maxclass" : "newobj",
					"text" : "& 255",
					"outlettype" : [ "int" ],
					"fontsize" : 12.0,
					"numinlets" : 2,
					"fontname" : "Arial",
					"numoutlets" : 1,
					"patching_rect" : [ 615.0, 405.0, 42.0, 20.0 ],
					"id" : "obj-15"
				}

			}
, 			{
				"box" : 				{
					"maxclass" : "newobj",
					"text" : ">> 8",
					"outlettype" : [ "int" ],
					"fontsize" : 12.0,
					"numinlets" : 2,
					"fontname" : "Arial",
					"numoutlets" : 1,
					"patching_rect" : [ 685.0, 380.0, 35.0, 20.0 ],
					"id" : "obj-9"
				}

			}
, 			{
				"box" : 				{
					"maxclass" : "newobj",
					"text" : "zl iter 1",
					"outlettype" : [ "", "" ],
					"fontsize" : 12.0,
					"numinlets" : 2,
					"fontname" : "Arial",
					"numoutlets" : 2,
					"patching_rect" : [ 615.0, 330.0, 49.0, 20.0 ],
					"id" : "obj-13"
				}

			}
, 			{
				"box" : 				{
					"maxclass" : "toggle",
					"outlettype" : [ "int" ],
					"numinlets" : 1,
					"numoutlets" : 1,
					"patching_rect" : [ 231.0, 48.0, 20.0, 20.0 ],
					"id" : "obj-8"
				}

			}
, 			{
				"box" : 				{
					"maxclass" : "newobj",
					"text" : "metro 25",
					"outlettype" : [ "bang" ],
					"fontsize" : 12.0,
					"numinlets" : 2,
					"fontname" : "Arial",
					"numoutlets" : 1,
					"patching_rect" : [ 230.0, 80.0, 58.0, 20.0 ],
					"id" : "obj-7"
				}

			}
, 			{
				"box" : 				{
					"maxclass" : "message",
					"text" : ";\rtoSerial baud 115200",
					"linecount" : 2,
					"outlettype" : [ "" ],
					"fontsize" : 12.0,
					"numinlets" : 2,
					"fontname" : "Arial",
					"numoutlets" : 1,
					"patching_rect" : [ 100.0, 50.0, 125.0, 32.0 ],
					"id" : "obj-4"
				}

			}
, 			{
				"box" : 				{
					"maxclass" : "message",
					"text" : ";\rtoSerial port a",
					"linecount" : 2,
					"outlettype" : [ "" ],
					"fontsize" : 12.0,
					"numinlets" : 2,
					"fontname" : "Arial",
					"numoutlets" : 1,
					"patching_rect" : [ 10.0, 50.0, 85.0, 32.0 ],
					"id" : "obj-3"
				}

			}
, 			{
				"box" : 				{
					"maxclass" : "message",
					"text" : ";\rtoSerial print",
					"linecount" : 2,
					"outlettype" : [ "" ],
					"fontsize" : 12.0,
					"numinlets" : 2,
					"fontname" : "Arial",
					"numoutlets" : 1,
					"patching_rect" : [ 10.0, 185.0, 78.0, 32.0 ],
					"id" : "obj-2"
				}

			}
, 			{
				"box" : 				{
					"maxclass" : "newobj",
					"text" : "serial",
					"outlettype" : [ "int", "" ],
					"fontsize" : 12.0,
					"color" : [ 0.811765, 0.372549, 0.372549, 1.0 ],
					"numinlets" : 1,
					"fontname" : "Arial",
					"numoutlets" : 2,
					"patching_rect" : [ 10.0, 300.0, 39.0, 20.0 ],
					"id" : "obj-1"
				}

			}
 ],
		"lines" : [ 			{
				"patchline" : 				{
					"source" : [ "obj-127", 0 ],
					"destination" : [ "obj-129", 1 ],
					"hidden" : 0,
					"midpoints" : [  ]
				}

			}
, 			{
				"patchline" : 				{
					"source" : [ "obj-129", 0 ],
					"destination" : [ "obj-128", 0 ],
					"hidden" : 0,
					"midpoints" : [  ]
				}

			}
, 			{
				"patchline" : 				{
					"source" : [ "obj-126", 0 ],
					"destination" : [ "obj-127", 0 ],
					"hidden" : 0,
					"midpoints" : [  ]
				}

			}
, 			{
				"patchline" : 				{
					"source" : [ "obj-124", 0 ],
					"destination" : [ "obj-126", 0 ],
					"hidden" : 0,
					"midpoints" : [  ]
				}

			}
, 			{
				"patchline" : 				{
					"source" : [ "obj-123", 0 ],
					"destination" : [ "obj-129", 0 ],
					"hidden" : 0,
					"midpoints" : [  ]
				}

			}
, 			{
				"patchline" : 				{
					"source" : [ "obj-118", 0 ],
					"destination" : [ "obj-121", 0 ],
					"hidden" : 0,
					"midpoints" : [  ]
				}

			}
, 			{
				"patchline" : 				{
					"source" : [ "obj-120", 0 ],
					"destination" : [ "obj-118", 0 ],
					"hidden" : 0,
					"midpoints" : [  ]
				}

			}
, 			{
				"patchline" : 				{
					"source" : [ "obj-120", 1 ],
					"destination" : [ "obj-119", 0 ],
					"hidden" : 0,
					"midpoints" : [  ]
				}

			}
, 			{
				"patchline" : 				{
					"source" : [ "obj-119", 0 ],
					"destination" : [ "obj-118", 1 ],
					"hidden" : 0,
					"midpoints" : [  ]
				}

			}
, 			{
				"patchline" : 				{
					"source" : [ "obj-120", 2 ],
					"destination" : [ "obj-119", 0 ],
					"hidden" : 0,
					"midpoints" : [  ]
				}

			}
, 			{
				"patchline" : 				{
					"source" : [ "obj-117", 0 ],
					"destination" : [ "obj-120", 0 ],
					"hidden" : 0,
					"midpoints" : [  ]
				}

			}
, 			{
				"patchline" : 				{
					"source" : [ "obj-117", 0 ],
					"destination" : [ "obj-45", 0 ],
					"hidden" : 0,
					"midpoints" : [  ]
				}

			}
, 			{
				"patchline" : 				{
					"source" : [ "obj-116", 0 ],
					"destination" : [ "obj-117", 0 ],
					"hidden" : 0,
					"midpoints" : [  ]
				}

			}
, 			{
				"patchline" : 				{
					"source" : [ "obj-115", 0 ],
					"destination" : [ "obj-116", 0 ],
					"hidden" : 0,
					"midpoints" : [  ]
				}

			}
, 			{
				"patchline" : 				{
					"source" : [ "obj-114", 0 ],
					"destination" : [ "obj-115", 0 ],
					"hidden" : 0,
					"midpoints" : [  ]
				}

			}
, 			{
				"patchline" : 				{
					"source" : [ "obj-113", 0 ],
					"destination" : [ "obj-114", 0 ],
					"hidden" : 0,
					"midpoints" : [  ]
				}

			}
, 			{
				"patchline" : 				{
					"source" : [ "obj-112", 0 ],
					"destination" : [ "obj-113", 0 ],
					"hidden" : 0,
					"midpoints" : [  ]
				}

			}
, 			{
				"patchline" : 				{
					"source" : [ "obj-111", 0 ],
					"destination" : [ "obj-112", 0 ],
					"hidden" : 0,
					"midpoints" : [  ]
				}

			}
, 			{
				"patchline" : 				{
					"source" : [ "obj-110", 0 ],
					"destination" : [ "obj-112", 1 ],
					"hidden" : 0,
					"midpoints" : [  ]
				}

			}
, 			{
				"patchline" : 				{
					"source" : [ "obj-109", 0 ],
					"destination" : [ "obj-104", 1 ],
					"hidden" : 0,
					"midpoints" : [  ]
				}

			}
, 			{
				"patchline" : 				{
					"source" : [ "obj-104", 0 ],
					"destination" : [ "obj-87", 0 ],
					"hidden" : 0,
					"midpoints" : [  ]
				}

			}
, 			{
				"patchline" : 				{
					"source" : [ "obj-107", 0 ],
					"destination" : [ "obj-104", 0 ],
					"hidden" : 0,
					"midpoints" : [  ]
				}

			}
, 			{
				"patchline" : 				{
					"source" : [ "obj-87", 0 ],
					"destination" : [ "obj-108", 0 ],
					"hidden" : 0,
					"midpoints" : [  ]
				}

			}
, 			{
				"patchline" : 				{
					"source" : [ "obj-12", 0 ],
					"destination" : [ "obj-74", 0 ],
					"hidden" : 0,
					"midpoints" : [  ]
				}

			}
, 			{
				"patchline" : 				{
					"source" : [ "obj-37", 0 ],
					"destination" : [ "obj-45", 0 ],
					"hidden" : 0,
					"midpoints" : [  ]
				}

			}
, 			{
				"patchline" : 				{
					"source" : [ "obj-39", 0 ],
					"destination" : [ "obj-37", 0 ],
					"hidden" : 0,
					"midpoints" : [  ]
				}

			}
, 			{
				"patchline" : 				{
					"source" : [ "obj-7", 0 ],
					"destination" : [ "obj-76", 0 ],
					"hidden" : 0,
					"midpoints" : [  ]
				}

			}
, 			{
				"patchline" : 				{
					"source" : [ "obj-73", 0 ],
					"destination" : [ "obj-23", 0 ],
					"hidden" : 0,
					"midpoints" : [  ]
				}

			}
, 			{
				"patchline" : 				{
					"source" : [ "obj-68", 0 ],
					"destination" : [ "obj-65", 0 ],
					"hidden" : 0,
					"midpoints" : [  ]
				}

			}
, 			{
				"patchline" : 				{
					"source" : [ "obj-65", 0 ],
					"destination" : [ "obj-28", 0 ],
					"hidden" : 0,
					"midpoints" : [  ]
				}

			}
, 			{
				"patchline" : 				{
					"source" : [ "obj-65", 1 ],
					"destination" : [ "obj-34", 0 ],
					"hidden" : 0,
					"midpoints" : [  ]
				}

			}
, 			{
				"patchline" : 				{
					"source" : [ "obj-50", 0 ],
					"destination" : [ "obj-70", 0 ],
					"hidden" : 0,
					"midpoints" : [  ]
				}

			}
, 			{
				"patchline" : 				{
					"source" : [ "obj-35", 0 ],
					"destination" : [ "obj-54", 0 ],
					"hidden" : 0,
					"midpoints" : [  ]
				}

			}
, 			{
				"patchline" : 				{
					"source" : [ "obj-6", 0 ],
					"destination" : [ "obj-69", 0 ],
					"hidden" : 0,
					"midpoints" : [  ]
				}

			}
, 			{
				"patchline" : 				{
					"source" : [ "obj-18", 0 ],
					"destination" : [ "obj-29", 0 ],
					"hidden" : 0,
					"midpoints" : [  ]
				}

			}
, 			{
				"patchline" : 				{
					"source" : [ "obj-11", 0 ],
					"destination" : [ "obj-56", 0 ],
					"hidden" : 0,
					"midpoints" : [  ]
				}

			}
, 			{
				"patchline" : 				{
					"source" : [ "obj-64", 0 ],
					"destination" : [ "obj-62", 0 ],
					"hidden" : 0,
					"midpoints" : [  ]
				}

			}
, 			{
				"patchline" : 				{
					"source" : [ "obj-62", 0 ],
					"destination" : [ "obj-60", 0 ],
					"hidden" : 0,
					"midpoints" : [  ]
				}

			}
, 			{
				"patchline" : 				{
					"source" : [ "obj-60", 0 ],
					"destination" : [ "obj-14", 0 ],
					"hidden" : 0,
					"midpoints" : [  ]
				}

			}
, 			{
				"patchline" : 				{
					"source" : [ "obj-60", 0 ],
					"destination" : [ "obj-48", 0 ],
					"hidden" : 0,
					"midpoints" : [  ]
				}

			}
, 			{
				"patchline" : 				{
					"source" : [ "obj-23", 0 ],
					"destination" : [ "obj-60", 1 ],
					"hidden" : 0,
					"midpoints" : [  ]
				}

			}
, 			{
				"patchline" : 				{
					"source" : [ "obj-59", 0 ],
					"destination" : [ "obj-51", 0 ],
					"hidden" : 0,
					"midpoints" : [  ]
				}

			}
, 			{
				"patchline" : 				{
					"source" : [ "obj-54", 0 ],
					"destination" : [ "obj-72", 0 ],
					"hidden" : 0,
					"midpoints" : [  ]
				}

			}
, 			{
				"patchline" : 				{
					"source" : [ "obj-51", 0 ],
					"destination" : [ "obj-61", 0 ],
					"hidden" : 0,
					"midpoints" : [  ]
				}

			}
, 			{
				"patchline" : 				{
					"source" : [ "obj-46", 0 ],
					"destination" : [ "obj-23", 0 ],
					"hidden" : 0,
					"midpoints" : [  ]
				}

			}
, 			{
				"patchline" : 				{
					"source" : [ "obj-44", 0 ],
					"destination" : [ "obj-46", 0 ],
					"hidden" : 0,
					"midpoints" : [  ]
				}

			}
, 			{
				"patchline" : 				{
					"source" : [ "obj-34", 4 ],
					"destination" : [ "obj-28", 38 ],
					"hidden" : 0,
					"midpoints" : [  ]
				}

			}
, 			{
				"patchline" : 				{
					"source" : [ "obj-28", 0 ],
					"destination" : [ "obj-36", 0 ],
					"hidden" : 0,
					"midpoints" : [  ]
				}

			}
, 			{
				"patchline" : 				{
					"source" : [ "obj-34", 3 ],
					"destination" : [ "obj-28", 29 ],
					"hidden" : 0,
					"midpoints" : [  ]
				}

			}
, 			{
				"patchline" : 				{
					"source" : [ "obj-34", 2 ],
					"destination" : [ "obj-28", 20 ],
					"hidden" : 0,
					"midpoints" : [  ]
				}

			}
, 			{
				"patchline" : 				{
					"source" : [ "obj-34", 1 ],
					"destination" : [ "obj-28", 11 ],
					"hidden" : 0,
					"midpoints" : [  ]
				}

			}
, 			{
				"patchline" : 				{
					"source" : [ "obj-34", 0 ],
					"destination" : [ "obj-28", 2 ],
					"hidden" : 0,
					"midpoints" : [  ]
				}

			}
, 			{
				"patchline" : 				{
					"source" : [ "obj-14", 0 ],
					"destination" : [ "obj-31", 0 ],
					"hidden" : 0,
					"midpoints" : [  ]
				}

			}
, 			{
				"patchline" : 				{
					"source" : [ "obj-45", 0 ],
					"destination" : [ "obj-12", 2 ],
					"hidden" : 0,
					"midpoints" : [  ]
				}

			}
, 			{
				"patchline" : 				{
					"source" : [ "obj-40", 0 ],
					"destination" : [ "obj-39", 0 ],
					"hidden" : 0,
					"midpoints" : [  ]
				}

			}
, 			{
				"patchline" : 				{
					"source" : [ "obj-30", 0 ],
					"destination" : [ "obj-32", 0 ],
					"hidden" : 0,
					"midpoints" : [  ]
				}

			}
, 			{
				"patchline" : 				{
					"source" : [ "obj-23", 0 ],
					"destination" : [ "obj-30", 1 ],
					"hidden" : 0,
					"midpoints" : [  ]
				}

			}
, 			{
				"patchline" : 				{
					"source" : [ "obj-23", 0 ],
					"destination" : [ "obj-30", 0 ],
					"hidden" : 0,
					"midpoints" : [  ]
				}

			}
, 			{
				"patchline" : 				{
					"source" : [ "obj-20", 0 ],
					"destination" : [ "obj-1", 0 ],
					"hidden" : 0,
					"midpoints" : [  ]
				}

			}
, 			{
				"patchline" : 				{
					"source" : [ "obj-16", 0 ],
					"destination" : [ "obj-3", 0 ],
					"hidden" : 0,
					"midpoints" : [  ]
				}

			}
, 			{
				"patchline" : 				{
					"source" : [ "obj-16", 0 ],
					"destination" : [ "obj-8", 0 ],
					"hidden" : 0,
					"midpoints" : [  ]
				}

			}
, 			{
				"patchline" : 				{
					"source" : [ "obj-17", 0 ],
					"destination" : [ "obj-10", 0 ],
					"hidden" : 0,
					"midpoints" : [  ]
				}

			}
, 			{
				"patchline" : 				{
					"source" : [ "obj-15", 0 ],
					"destination" : [ "obj-10", 0 ],
					"hidden" : 0,
					"midpoints" : [  ]
				}

			}
, 			{
				"patchline" : 				{
					"source" : [ "obj-13", 0 ],
					"destination" : [ "obj-19", 0 ],
					"hidden" : 0,
					"midpoints" : [  ]
				}

			}
, 			{
				"patchline" : 				{
					"source" : [ "obj-9", 0 ],
					"destination" : [ "obj-17", 0 ],
					"hidden" : 0,
					"midpoints" : [  ]
				}

			}
, 			{
				"patchline" : 				{
					"source" : [ "obj-19", 0 ],
					"destination" : [ "obj-9", 0 ],
					"hidden" : 0,
					"midpoints" : [  ]
				}

			}
, 			{
				"patchline" : 				{
					"source" : [ "obj-19", 0 ],
					"destination" : [ "obj-15", 0 ],
					"hidden" : 0,
					"midpoints" : [  ]
				}

			}
, 			{
				"patchline" : 				{
					"source" : [ "obj-22", 0 ],
					"destination" : [ "obj-24", 0 ],
					"hidden" : 0,
					"midpoints" : [  ]
				}

			}
, 			{
				"patchline" : 				{
					"source" : [ "obj-1", 0 ],
					"destination" : [ "obj-22", 0 ],
					"hidden" : 0,
					"midpoints" : [  ]
				}

			}
, 			{
				"patchline" : 				{
					"source" : [ "obj-24", 1 ],
					"destination" : [ "obj-26", 1 ],
					"hidden" : 0,
					"midpoints" : [  ]
				}

			}
, 			{
				"patchline" : 				{
					"source" : [ "obj-24", 0 ],
					"destination" : [ "obj-25", 0 ],
					"hidden" : 0,
					"midpoints" : [  ]
				}

			}
, 			{
				"patchline" : 				{
					"source" : [ "obj-25", 0 ],
					"destination" : [ "obj-26", 0 ],
					"hidden" : 0,
					"midpoints" : [  ]
				}

			}
, 			{
				"patchline" : 				{
					"source" : [ "obj-16", 0 ],
					"destination" : [ "obj-4", 0 ],
					"hidden" : 0,
					"midpoints" : [  ]
				}

			}
, 			{
				"patchline" : 				{
					"source" : [ "obj-38", 0 ],
					"destination" : [ "obj-40", 0 ],
					"hidden" : 0,
					"midpoints" : [  ]
				}

			}
, 			{
				"patchline" : 				{
					"source" : [ "obj-41", 0 ],
					"destination" : [ "obj-40", 0 ],
					"hidden" : 0,
					"midpoints" : [  ]
				}

			}
, 			{
				"patchline" : 				{
					"source" : [ "obj-42", 0 ],
					"destination" : [ "obj-40", 0 ],
					"hidden" : 0,
					"midpoints" : [  ]
				}

			}
, 			{
				"patchline" : 				{
					"source" : [ "obj-69", 0 ],
					"destination" : [ "obj-43", 0 ],
					"hidden" : 0,
					"midpoints" : [  ]
				}

			}
, 			{
				"patchline" : 				{
					"source" : [ "obj-61", 0 ],
					"destination" : [ "obj-69", 1 ],
					"hidden" : 0,
					"midpoints" : [  ]
				}

			}
, 			{
				"patchline" : 				{
					"source" : [ "obj-70", 0 ],
					"destination" : [ "obj-71", 0 ],
					"hidden" : 0,
					"midpoints" : [  ]
				}

			}
, 			{
				"patchline" : 				{
					"source" : [ "obj-72", 0 ],
					"destination" : [ "obj-70", 1 ],
					"hidden" : 0,
					"midpoints" : [  ]
				}

			}
, 			{
				"patchline" : 				{
					"source" : [ "obj-45", 0 ],
					"destination" : [ "obj-12", 3 ],
					"hidden" : 0,
					"midpoints" : [  ]
				}

			}
, 			{
				"patchline" : 				{
					"source" : [ "obj-26", 0 ],
					"destination" : [ "obj-18", 0 ],
					"hidden" : 0,
					"midpoints" : [  ]
				}

			}
, 			{
				"patchline" : 				{
					"source" : [ "obj-45", 0 ],
					"destination" : [ "obj-12", 4 ],
					"hidden" : 0,
					"midpoints" : [  ]
				}

			}
, 			{
				"patchline" : 				{
					"source" : [ "obj-5", 0 ],
					"destination" : [ "obj-45", 0 ],
					"hidden" : 0,
					"midpoints" : [  ]
				}

			}
, 			{
				"patchline" : 				{
					"source" : [ "obj-27", 0 ],
					"destination" : [ "obj-5", 0 ],
					"hidden" : 0,
					"midpoints" : [  ]
				}

			}
, 			{
				"patchline" : 				{
					"source" : [ "obj-33", 0 ],
					"destination" : [ "obj-7", 1 ],
					"hidden" : 0,
					"midpoints" : [  ]
				}

			}
, 			{
				"patchline" : 				{
					"source" : [ "obj-8", 0 ],
					"destination" : [ "obj-7", 0 ],
					"hidden" : 0,
					"midpoints" : [  ]
				}

			}
, 			{
				"patchline" : 				{
					"source" : [ "obj-57", 0 ],
					"destination" : [ "obj-21", 0 ],
					"hidden" : 0,
					"midpoints" : [  ]
				}

			}
, 			{
				"patchline" : 				{
					"source" : [ "obj-47", 0 ],
					"destination" : [ "obj-13", 0 ],
					"hidden" : 0,
					"midpoints" : [  ]
				}

			}
, 			{
				"patchline" : 				{
					"source" : [ "obj-48", 0 ],
					"destination" : [ "obj-47", 0 ],
					"hidden" : 0,
					"midpoints" : [  ]
				}

			}
, 			{
				"patchline" : 				{
					"source" : [ "obj-31", 0 ],
					"destination" : [ "obj-47", 0 ],
					"hidden" : 0,
					"midpoints" : [  ]
				}

			}
, 			{
				"patchline" : 				{
					"source" : [ "obj-56", 0 ],
					"destination" : [ "obj-57", 0 ],
					"hidden" : 0,
					"midpoints" : [  ]
				}

			}
, 			{
				"patchline" : 				{
					"source" : [ "obj-92", 0 ],
					"destination" : [ "obj-91", 0 ],
					"hidden" : 0,
					"midpoints" : [  ]
				}

			}
, 			{
				"patchline" : 				{
					"source" : [ "obj-91", 2 ],
					"destination" : [ "obj-89", 0 ],
					"hidden" : 0,
					"midpoints" : [  ]
				}

			}
, 			{
				"patchline" : 				{
					"source" : [ "obj-89", 0 ],
					"destination" : [ "obj-90", 0 ],
					"hidden" : 0,
					"midpoints" : [  ]
				}

			}
, 			{
				"patchline" : 				{
					"source" : [ "obj-90", 0 ],
					"destination" : [ "obj-97", 0 ],
					"hidden" : 0,
					"midpoints" : [  ]
				}

			}
, 			{
				"patchline" : 				{
					"source" : [ "obj-96", 0 ],
					"destination" : [ "obj-95", 0 ],
					"hidden" : 0,
					"midpoints" : [  ]
				}

			}
, 			{
				"patchline" : 				{
					"source" : [ "obj-97", 0 ],
					"destination" : [ "obj-96", 1 ],
					"hidden" : 0,
					"midpoints" : [  ]
				}

			}
, 			{
				"patchline" : 				{
					"source" : [ "obj-97", 1 ],
					"destination" : [ "obj-96", 2 ],
					"hidden" : 0,
					"midpoints" : [  ]
				}

			}
, 			{
				"patchline" : 				{
					"source" : [ "obj-97", 2 ],
					"destination" : [ "obj-96", 3 ],
					"hidden" : 0,
					"midpoints" : [  ]
				}

			}
, 			{
				"patchline" : 				{
					"source" : [ "obj-90", 0 ],
					"destination" : [ "obj-96", 0 ],
					"hidden" : 0,
					"midpoints" : [  ]
				}

			}
, 			{
				"patchline" : 				{
					"source" : [ "obj-95", 0 ],
					"destination" : [ "obj-93", 0 ],
					"hidden" : 0,
					"midpoints" : [  ]
				}

			}
, 			{
				"patchline" : 				{
					"source" : [ "obj-101", 0 ],
					"destination" : [ "obj-90", 1 ],
					"hidden" : 0,
					"midpoints" : [  ]
				}

			}
, 			{
				"patchline" : 				{
					"source" : [ "obj-45", 0 ],
					"destination" : [ "obj-12", 5 ],
					"hidden" : 0,
					"midpoints" : [  ]
				}

			}
, 			{
				"patchline" : 				{
					"source" : [ "obj-45", 0 ],
					"destination" : [ "obj-12", 6 ],
					"hidden" : 0,
					"midpoints" : [  ]
				}

			}
, 			{
				"patchline" : 				{
					"source" : [ "obj-45", 0 ],
					"destination" : [ "obj-12", 1 ],
					"hidden" : 0,
					"midpoints" : [  ]
				}

			}
, 			{
				"patchline" : 				{
					"source" : [ "obj-45", 0 ],
					"destination" : [ "obj-12", 0 ],
					"hidden" : 0,
					"midpoints" : [  ]
				}

			}
, 			{
				"patchline" : 				{
					"source" : [ "obj-45", 0 ],
					"destination" : [ "obj-12", 7 ],
					"hidden" : 0,
					"midpoints" : [  ]
				}

			}
, 			{
				"patchline" : 				{
					"source" : [ "obj-45", 0 ],
					"destination" : [ "obj-12", 8 ],
					"hidden" : 0,
					"midpoints" : [  ]
				}

			}
, 			{
				"patchline" : 				{
					"source" : [ "obj-45", 0 ],
					"destination" : [ "obj-12", 9 ],
					"hidden" : 0,
					"midpoints" : [  ]
				}

			}
, 			{
				"patchline" : 				{
					"source" : [ "obj-45", 0 ],
					"destination" : [ "obj-12", 10 ],
					"hidden" : 0,
					"midpoints" : [  ]
				}

			}
, 			{
				"patchline" : 				{
					"source" : [ "obj-45", 0 ],
					"destination" : [ "obj-12", 11 ],
					"hidden" : 0,
					"midpoints" : [  ]
				}

			}
, 			{
				"patchline" : 				{
					"source" : [ "obj-45", 0 ],
					"destination" : [ "obj-12", 12 ],
					"hidden" : 0,
					"midpoints" : [  ]
				}

			}
, 			{
				"patchline" : 				{
					"source" : [ "obj-45", 0 ],
					"destination" : [ "obj-12", 13 ],
					"hidden" : 0,
					"midpoints" : [  ]
				}

			}
, 			{
				"patchline" : 				{
					"source" : [ "obj-45", 0 ],
					"destination" : [ "obj-12", 14 ],
					"hidden" : 0,
					"midpoints" : [  ]
				}

			}
, 			{
				"patchline" : 				{
					"source" : [ "obj-45", 0 ],
					"destination" : [ "obj-12", 15 ],
					"hidden" : 0,
					"midpoints" : [  ]
				}

			}
, 			{
				"patchline" : 				{
					"source" : [ "obj-45", 0 ],
					"destination" : [ "obj-12", 16 ],
					"hidden" : 0,
					"midpoints" : [  ]
				}

			}
, 			{
				"patchline" : 				{
					"source" : [ "obj-45", 0 ],
					"destination" : [ "obj-12", 17 ],
					"hidden" : 0,
					"midpoints" : [  ]
				}

			}
, 			{
				"patchline" : 				{
					"source" : [ "obj-94", 1 ],
					"destination" : [ "obj-88", 0 ],
					"hidden" : 0,
					"midpoints" : [  ]
				}

			}
, 			{
				"patchline" : 				{
					"source" : [ "obj-94", 0 ],
					"destination" : [ "obj-88", 1 ],
					"hidden" : 0,
					"midpoints" : [  ]
				}

			}
, 			{
				"patchline" : 				{
					"source" : [ "obj-88", 0 ],
					"destination" : [ "obj-38", 0 ],
					"hidden" : 0,
					"midpoints" : [  ]
				}

			}
, 			{
				"patchline" : 				{
					"source" : [ "obj-88", 1 ],
					"destination" : [ "obj-42", 0 ],
					"hidden" : 0,
					"midpoints" : [  ]
				}

			}
, 			{
				"patchline" : 				{
					"source" : [ "obj-88", 2 ],
					"destination" : [ "obj-41", 0 ],
					"hidden" : 0,
					"midpoints" : [  ]
				}

			}
, 			{
				"patchline" : 				{
					"source" : [ "obj-100", 0 ],
					"destination" : [ "obj-86", 0 ],
					"hidden" : 0,
					"midpoints" : [  ]
				}

			}
, 			{
				"patchline" : 				{
					"source" : [ "obj-86", 0 ],
					"destination" : [ "obj-105", 0 ],
					"hidden" : 0,
					"midpoints" : [  ]
				}

			}
, 			{
				"patchline" : 				{
					"source" : [ "obj-105", 0 ],
					"destination" : [ "obj-106", 0 ],
					"hidden" : 0,
					"midpoints" : [  ]
				}

			}
, 			{
				"patchline" : 				{
					"source" : [ "obj-106", 0 ],
					"destination" : [ "obj-94", 0 ],
					"hidden" : 0,
					"midpoints" : [  ]
				}

			}
 ]
	}

}
