{
	"patcher" : 	{
		"fileversion" : 1,
		"rect" : [ 87.0, 125.0, 640.0, 506.0 ],
		"bglocked" : 0,
		"defrect" : [ 87.0, 125.0, 640.0, 506.0 ],
		"openrect" : [ 0.0, 0.0, 0.0, 0.0 ],
		"openinpresentation" : 0,
		"default_fontsize" : 12.0,
		"default_fontface" : 0,
		"default_fontname" : "Arial",
		"gridonopen" : 0,
		"gridsize" : [ 5.0, 5.0 ],
		"gridsnaponopen" : 0,
		"toolbarvisible" : 1,
		"boxanimatetime" : 200,
		"imprint" : 0,
		"metadata" : [  ],
		"boxes" : [ 			{
				"box" : 				{
					"maxclass" : "newobj",
					"text" : "s toSerial",
					"numoutlets" : 0,
					"id" : "obj-14",
					"fontname" : "Arial",
					"fontsize" : 12.0,
					"numinlets" : 1,
					"patching_rect" : [ 20.0, 140.0, 61.0, 20.0 ]
				}

			}
, 			{
				"box" : 				{
					"maxclass" : "newobj",
					"text" : "s toSeria3",
					"numoutlets" : 0,
					"id" : "obj-11",
					"fontname" : "Arial",
					"fontsize" : 12.0,
					"numinlets" : 1,
					"patching_rect" : [ 220.0, 113.0, 65.0, 20.0 ]
				}

			}
, 			{
				"box" : 				{
					"maxclass" : "newobj",
					"text" : "zl iter 1",
					"numoutlets" : 2,
					"id" : "obj-12",
					"fontname" : "Arial",
					"outlettype" : [ "", "" ],
					"fontsize" : 12.0,
					"presentation_rect" : [ 220.0, 94.0, 0.0, 0.0 ],
					"numinlets" : 2,
					"patching_rect" : [ 220.0, 85.0, 49.0, 20.0 ]
				}

			}
, 			{
				"box" : 				{
					"maxclass" : "newobj",
					"text" : "s toSeria2",
					"numoutlets" : 0,
					"id" : "obj-9",
					"fontname" : "Arial",
					"fontsize" : 12.0,
					"numinlets" : 1,
					"patching_rect" : [ 145.0, 113.0, 65.0, 20.0 ]
				}

			}
, 			{
				"box" : 				{
					"maxclass" : "newobj",
					"text" : "zl iter 1",
					"numoutlets" : 2,
					"id" : "obj-10",
					"fontname" : "Arial",
					"outlettype" : [ "", "" ],
					"fontsize" : 12.0,
					"presentation_rect" : [ 146.0, 96.0, 0.0, 0.0 ],
					"numinlets" : 2,
					"patching_rect" : [ 145.0, 85.0, 49.0, 20.0 ]
				}

			}
, 			{
				"box" : 				{
					"maxclass" : "newobj",
					"text" : "s toSeria1",
					"numoutlets" : 0,
					"id" : "obj-7",
					"fontname" : "Arial",
					"fontsize" : 12.0,
					"numinlets" : 1,
					"patching_rect" : [ 75.0, 113.0, 65.0, 20.0 ]
				}

			}
, 			{
				"box" : 				{
					"maxclass" : "newobj",
					"text" : "zl iter 1",
					"numoutlets" : 2,
					"id" : "obj-8",
					"fontname" : "Arial",
					"outlettype" : [ "", "" ],
					"fontsize" : 12.0,
					"presentation_rect" : [ 70.0, 96.0, 0.0, 0.0 ],
					"numinlets" : 2,
					"patching_rect" : [ 75.0, 85.0, 49.0, 20.0 ]
				}

			}
, 			{
				"box" : 				{
					"maxclass" : "newobj",
					"text" : "s toSerial0",
					"numoutlets" : 0,
					"id" : "obj-6",
					"fontname" : "Arial",
					"fontsize" : 12.0,
					"numinlets" : 1,
					"patching_rect" : [ 5.0, 113.0, 67.0, 20.0 ]
				}

			}
, 			{
				"box" : 				{
					"maxclass" : "newobj",
					"text" : "zl iter 1",
					"numoutlets" : 2,
					"id" : "obj-5",
					"fontname" : "Arial",
					"outlettype" : [ "", "" ],
					"fontsize" : 12.0,
					"numinlets" : 2,
					"patching_rect" : [ 5.0, 85.0, 49.0, 20.0 ]
				}

			}
, 			{
				"box" : 				{
					"maxclass" : "newobj",
					"text" : "route 0 1 2 3",
					"numoutlets" : 5,
					"id" : "obj-4",
					"fontname" : "Arial",
					"outlettype" : [ "", "", "", "", "" ],
					"fontsize" : 12.0,
					"numinlets" : 1,
					"patching_rect" : [ 5.0, 55.0, 255.0, 20.0 ]
				}

			}
, 			{
				"box" : 				{
					"maxclass" : "newobj",
					"text" : "route /sendRaw",
					"numoutlets" : 2,
					"id" : "obj-3",
					"fontname" : "Arial",
					"outlettype" : [ "", "" ],
					"fontsize" : 12.0,
					"numinlets" : 1,
					"patching_rect" : [ 5.0, 30.0, 95.0, 20.0 ]
				}

			}
, 			{
				"box" : 				{
					"maxclass" : "newobj",
					"text" : "udpreceive 3333",
					"numoutlets" : 1,
					"id" : "obj-1",
					"fontname" : "Arial",
					"outlettype" : [ "" ],
					"fontsize" : 12.0,
					"numinlets" : 1,
					"patching_rect" : [ 5.0, 5.0, 99.0, 20.0 ]
				}

			}
 ],
		"lines" : [ 			{
				"patchline" : 				{
					"source" : [ "obj-5", 0 ],
					"destination" : [ "obj-14", 0 ],
					"hidden" : 0,
					"midpoints" : [  ]
				}

			}
, 			{
				"patchline" : 				{
					"source" : [ "obj-4", 3 ],
					"destination" : [ "obj-12", 0 ],
					"hidden" : 0,
					"midpoints" : [  ]
				}

			}
, 			{
				"patchline" : 				{
					"source" : [ "obj-12", 0 ],
					"destination" : [ "obj-11", 0 ],
					"hidden" : 0,
					"midpoints" : [  ]
				}

			}
, 			{
				"patchline" : 				{
					"source" : [ "obj-10", 0 ],
					"destination" : [ "obj-9", 0 ],
					"hidden" : 0,
					"midpoints" : [  ]
				}

			}
, 			{
				"patchline" : 				{
					"source" : [ "obj-8", 0 ],
					"destination" : [ "obj-7", 0 ],
					"hidden" : 0,
					"midpoints" : [  ]
				}

			}
, 			{
				"patchline" : 				{
					"source" : [ "obj-4", 2 ],
					"destination" : [ "obj-10", 0 ],
					"hidden" : 0,
					"midpoints" : [  ]
				}

			}
, 			{
				"patchline" : 				{
					"source" : [ "obj-4", 1 ],
					"destination" : [ "obj-8", 0 ],
					"hidden" : 0,
					"midpoints" : [  ]
				}

			}
, 			{
				"patchline" : 				{
					"source" : [ "obj-5", 0 ],
					"destination" : [ "obj-6", 0 ],
					"hidden" : 0,
					"midpoints" : [  ]
				}

			}
, 			{
				"patchline" : 				{
					"source" : [ "obj-3", 0 ],
					"destination" : [ "obj-4", 0 ],
					"hidden" : 0,
					"midpoints" : [  ]
				}

			}
, 			{
				"patchline" : 				{
					"source" : [ "obj-4", 0 ],
					"destination" : [ "obj-5", 0 ],
					"hidden" : 0,
					"midpoints" : [  ]
				}

			}
, 			{
				"patchline" : 				{
					"source" : [ "obj-1", 0 ],
					"destination" : [ "obj-3", 0 ],
					"hidden" : 0,
					"midpoints" : [  ]
				}

			}
 ]
	}

}
